<svg width="176" height="176" viewBox="0 0 176 176" fill="none" xmlns="http://www.w3.org/2000/svg">
<g clip-path="url(#clip0_1355_257)">
<path d="M45.7099 107.496H15.2317C13.1276 107.496 11.4219 108.361 11.4219 109.429V144.219C11.4219 145.286 13.1276 146.152 15.2317 146.152H45.7099C47.814 146.152 49.5196 145.286 49.5196 144.219V109.429C49.5196 108.361 47.814 107.496 45.7099 107.496Z" fill="url(#paint0_linear_1355_257)"/>
<path d="M102.874 50.0625H72.3957C70.2916 50.0625 68.5859 51.3279 68.5859 52.8888V143.332C68.5859 144.893 70.2916 146.158 72.3957 146.158H102.874C104.978 146.158 106.684 144.893 106.684 143.332V52.8888C106.684 51.3279 104.978 50.0625 102.874 50.0625Z" fill="url(#paint1_linear_1355_257)"/>
<path d="M159.999 116.605H129.521C127.417 116.605 125.711 117.708 125.711 119.068V143.691C125.711 145.051 127.417 146.154 129.521 146.154H159.999C162.103 146.154 163.809 145.051 163.809 143.691V119.068C163.809 117.708 162.103 116.605 159.999 116.605Z" fill="url(#paint2_linear_1355_257)"/>
<path d="M156.836 156.984H18.4139C16.3109 156.984 0 163.101 0 165.204C0 167.307 1.70678 169.014 3.80977 169.014H171.44C173.543 169.014 175.25 167.307 175.25 165.204C175.25 163.101 158.939 156.984 156.836 156.984Z" fill="url(#paint3_linear_1355_257)"/>
<g filter="url(#filter0_bi_1355_257)">
<path d="M45.7099 63.2305H15.2317C13.1276 63.2305 11.4219 65.0866 11.4219 67.3764V142.004C11.4219 144.294 13.1276 146.15 15.2317 146.15H45.7099C47.814 146.15 49.5196 144.294 49.5196 142.004V67.3764C49.5196 65.0866 47.814 63.2305 45.7099 63.2305Z" fill="url(#paint4_linear_1355_257)" fill-opacity="0.2"/>
<path d="M15.2317 64.3258H45.7099C47.1237 64.3258 48.4243 65.6025 48.4243 67.3764V142.004C48.4243 143.778 47.1237 145.055 45.7099 145.055H15.2317C13.8179 145.055 12.5172 143.778 12.5172 142.004V67.3764C12.5172 65.6025 13.8179 64.3258 15.2317 64.3258Z" stroke="url(#paint5_linear_1355_257)" stroke-opacity="0.1" stroke-width="2.19062"/>
</g>
<g filter="url(#filter1_bi_1355_257)">
<path d="M102.874 6.25391H72.3957C70.2916 6.25391 68.5859 8.0962 68.5859 10.3687V142.043C68.5859 144.316 70.2916 146.158 72.3957 146.158H102.874C104.978 146.158 106.684 144.316 106.684 142.043V10.3687C106.684 8.0962 104.978 6.25391 102.874 6.25391Z" fill="url(#paint6_linear_1355_257)" fill-opacity="0.2"/>
<path d="M72.3957 7.34922H102.874C104.295 7.34922 105.588 8.62013 105.588 10.3687V142.043C105.588 143.792 104.295 145.063 102.874 145.063H72.3957C70.9744 145.063 69.6812 143.792 69.6812 142.043V10.3687C69.6812 8.62013 70.9744 7.34922 72.3957 7.34922Z" stroke="url(#paint7_linear_1355_257)" stroke-opacity="0.1" stroke-width="2.19062"/>
</g>
<g filter="url(#filter2_bi_1355_257)">
<path d="M159.999 96.4023H129.521C127.417 96.4023 125.711 98.2585 125.711 100.548V142.008C125.711 144.298 127.417 146.154 129.521 146.154H159.999C162.103 146.154 163.809 144.298 163.809 142.008V100.548C163.809 98.2585 162.103 96.4023 159.999 96.4023Z" fill="url(#paint8_linear_1355_257)" fill-opacity="0.2"/>
<path d="M129.521 97.4977H159.999C161.413 97.4977 162.713 98.7744 162.713 100.548V142.008C162.713 143.782 161.413 145.059 159.999 145.059H129.521C128.107 145.059 126.806 143.782 126.806 142.008V100.548C126.806 98.7744 128.107 97.4977 129.521 97.4977Z" stroke="url(#paint9_linear_1355_257)" stroke-opacity="0.1" stroke-width="2.19062"/>
</g>
</g>
<defs>
<filter id="filter0_bi_1355_257" x="-32.3905" y="19.4181" width="125.722" height="170.544" filterUnits="userSpaceOnUse" color-interpolation-filters="sRGB">
<feFlood flood-opacity="0" result="BackgroundImageFix"/>
<feGaussianBlur in="BackgroundImageFix" stdDeviation="21.9062"/>
<feComposite in2="SourceAlpha" operator="in" result="effect1_backgroundBlur_1355_257"/>
<feBlend mode="normal" in="SourceGraphic" in2="effect1_backgroundBlur_1355_257" result="shape"/>
<feColorMatrix in="SourceAlpha" type="matrix" values="0 0 0 0 0 0 0 0 0 0 0 0 0 0 0 0 0 0 127 0" result="hardAlpha"/>
<feOffset dy="14.6041"/>
<feGaussianBlur stdDeviation="10.9531"/>
<feComposite in2="hardAlpha" operator="arithmetic" k2="-1" k3="1"/>
<feColorMatrix type="matrix" values="0 0 0 0 1 0 0 0 0 1 0 0 0 0 1 0 0 0 0.15 0"/>
<feBlend mode="normal" in2="shape" result="effect2_innerShadow_1355_257"/>
</filter>
<filter id="filter1_bi_1355_257" x="24.7735" y="-37.5585" width="125.722" height="227.529" filterUnits="userSpaceOnUse" color-interpolation-filters="sRGB">
<feFlood flood-opacity="0" result="BackgroundImageFix"/>
<feGaussianBlur in="BackgroundImageFix" stdDeviation="21.9062"/>
<feComposite in2="SourceAlpha" operator="in" result="effect1_backgroundBlur_1355_257"/>
<feBlend mode="normal" in="SourceGraphic" in2="effect1_backgroundBlur_1355_257" result="shape"/>
<feColorMatrix in="SourceAlpha" type="matrix" values="0 0 0 0 0 0 0 0 0 0 0 0 0 0 0 0 0 0 127 0" result="hardAlpha"/>
<feOffset dy="14.6041"/>
<feGaussianBlur stdDeviation="10.9531"/>
<feComposite in2="hardAlpha" operator="arithmetic" k2="-1" k3="1"/>
<feColorMatrix type="matrix" values="0 0 0 0 1 0 0 0 0 1 0 0 0 0 1 0 0 0 0.15 0"/>
<feBlend mode="normal" in2="shape" result="effect2_innerShadow_1355_257"/>
</filter>
<filter id="filter2_bi_1355_257" x="81.8985" y="52.5899" width="125.722" height="137.377" filterUnits="userSpaceOnUse" color-interpolation-filters="sRGB">
<feFlood flood-opacity="0" result="BackgroundImageFix"/>
<feGaussianBlur in="BackgroundImageFix" stdDeviation="21.9062"/>
<feComposite in2="SourceAlpha" operator="in" result="effect1_backgroundBlur_1355_257"/>
<feBlend mode="normal" in="SourceGraphic" in2="effect1_backgroundBlur_1355_257" result="shape"/>
<feColorMatrix in="SourceAlpha" type="matrix" values="0 0 0 0 0 0 0 0 0 0 0 0 0 0 0 0 0 0 127 0" result="hardAlpha"/>
<feOffset dy="14.6041"/>
<feGaussianBlur stdDeviation="10.9531"/>
<feComposite in2="hardAlpha" operator="arithmetic" k2="-1" k3="1"/>
<feColorMatrix type="matrix" values="0 0 0 0 1 0 0 0 0 1 0 0 0 0 1 0 0 0 0.15 0"/>
<feBlend mode="normal" in2="shape" result="effect2_innerShadow_1355_257"/>
</filter>
<linearGradient id="paint0_linear_1355_257" x1="13.0093" y1="115.227" x2="54.5615" y2="120.915" gradientUnits="userSpaceOnUse">
<stop stop-color="#8AC4E6"/>
<stop offset="1" stop-color="#3A55E7"/>
</linearGradient>
<linearGradient id="paint1_linear_1355_257" x1="70.1733" y1="69.2817" x2="112.376" y2="71.6055" gradientUnits="userSpaceOnUse">
<stop stop-color="#8AC4E6"/>
<stop offset="1" stop-color="#3A55E7"/>
</linearGradient>
<linearGradient id="paint2_linear_1355_257" x1="127.298" y1="122.515" x2="168.314" y2="129.86" gradientUnits="userSpaceOnUse">
<stop stop-color="#8AC4E6"/>
<stop offset="1" stop-color="#3A55E7"/>
</linearGradient>
<linearGradient id="paint3_linear_1355_257" x1="7.30207" y1="159.39" x2="45.5261" y2="236.733" gradientUnits="userSpaceOnUse">
<stop stop-color="#8AC4E6"/>
<stop offset="1" stop-color="#3A55E7"/>
</linearGradient>
<linearGradient id="paint4_linear_1355_257" x1="13.0093" y1="79.8144" x2="55.1684" y2="82.5047" gradientUnits="userSpaceOnUse">
<stop stop-color="#66C7FE"/>
<stop offset="1" stop-color="#406AFF"/>
</linearGradient>
<linearGradient id="paint5_linear_1355_257" x1="12.6124" y1="66.9995" x2="49.5196" y2="66.9995" gradientUnits="userSpaceOnUse">
<stop stop-color="#C8A6FF"/>
<stop offset="1" stop-color="#6B69CF"/>
</linearGradient>
<linearGradient id="paint6_linear_1355_257" x1="70.1733" y1="34.2348" x2="112.444" y2="35.8335" gradientUnits="userSpaceOnUse">
<stop stop-color="#66C7FE"/>
<stop offset="1" stop-color="#406AFF"/>
</linearGradient>
<linearGradient id="paint7_linear_1355_257" x1="69.7765" y1="12.6132" x2="106.684" y2="12.6132" gradientUnits="userSpaceOnUse">
<stop stop-color="#C8A6FF"/>
<stop offset="1" stop-color="#6B69CF"/>
</linearGradient>
<linearGradient id="paint8_linear_1355_257" x1="127.298" y1="106.353" x2="169.156" y2="110.804" gradientUnits="userSpaceOnUse">
<stop stop-color="#66C7FE"/>
<stop offset="1" stop-color="#406AFF"/>
</linearGradient>
<linearGradient id="paint9_linear_1355_257" x1="126.901" y1="98.6638" x2="163.809" y2="98.6638" gradientUnits="userSpaceOnUse">
<stop stop-color="#C8A6FF"/>
<stop offset="1" stop-color="#6B69CF"/>
</linearGradient>
<clipPath id="clip0_1355_257">
<rect width="175.25" height="175.25" fill="white"/>
</clipPath>
</defs>
</svg>
