<svg width="176" height="146" viewBox="0 0 176 146" fill="none" xmlns="http://www.w3.org/2000/svg">
<g filter="url(#filter0_bi_1355_266)">
<path d="M58.9931 56.7457C58.7476 56.2988 58.3892 55.9242 57.9537 55.6591L34.3972 41.2632C33.9352 40.9812 33.4044 40.832 32.8631 40.832C32.3219 40.832 31.791 40.9812 31.329 41.2632L7.77262 55.6591C7.33709 55.9242 6.97869 56.2988 6.73319 56.7457L32.8631 72.7169L58.9931 56.7457Z" fill="url(#paint0_linear_1355_266)"/>
<path d="M6.73319 56.7457C6.49032 57.1825 6.35984 57.6764 6.35938 58.1762V84.3178C6.35966 84.8223 6.48951 85.3181 6.73648 85.7579C6.98346 86.1978 7.33927 86.5667 7.76981 86.8295L31.3262 101.225C31.7881 101.508 32.3189 101.658 32.8603 101.658L32.8631 72.7169L6.73319 56.7457Z" fill="url(#paint1_linear_1355_266)"/>
<path d="M58.9931 56.7457C59.236 57.1825 59.3608 57.6764 59.3613 58.1762V84.3178C59.361 84.8223 59.2312 85.3181 58.9842 85.7579C58.7372 86.1978 58.3814 86.5667 57.9508 86.8295L34.3944 101.225C33.9326 101.508 33.4018 101.658 32.8603 101.658L32.8631 72.7169L58.9931 56.7457Z" fill="url(#paint2_linear_1355_266)"/>
</g>
<g filter="url(#filter1_bi_1355_266)">
<path d="M58.9931 56.7457C58.7476 56.2988 58.3892 55.9242 57.9537 55.6591L34.3972 41.2632C33.9352 40.9812 33.4044 40.832 32.8631 40.832C32.3219 40.832 31.791 40.9812 31.329 41.2632L7.77262 55.6591C7.33709 55.9242 6.97869 56.2988 6.73319 56.7457L32.8631 72.7169L58.9931 56.7457Z" fill="url(#paint3_linear_1355_266)"/>
<path d="M6.73319 56.7457C6.49032 57.1825 6.35984 57.6764 6.35938 58.1762V84.3178C6.35966 84.8223 6.48951 85.3181 6.73648 85.7579C6.98346 86.1978 7.33927 86.5667 7.76981 86.8295L31.3262 101.225C31.7881 101.508 32.3189 101.658 32.8603 101.658L32.8631 72.7169L6.73319 56.7457Z" fill="url(#paint4_linear_1355_266)"/>
<path d="M58.9931 56.7457C59.236 57.1825 59.3608 57.6764 59.3613 58.1762V84.3178C59.361 84.8223 59.2312 85.3181 58.9842 85.7579C58.7372 86.1978 58.3814 86.5667 57.9508 86.8295L34.3944 101.225C33.9326 101.508 33.4018 101.658 32.8603 101.658L32.8631 72.7169L58.9931 56.7457Z" fill="url(#paint5_linear_1355_266)"/>
</g>
<g filter="url(#filter2_bi_1355_266)">
<path d="M113.759 21.6207C113.513 21.1738 113.155 20.7992 112.719 20.5341L89.1629 6.13824C88.7009 5.85623 88.17 5.70703 87.6288 5.70703C87.0875 5.70703 86.5567 5.85623 86.0947 6.13824L62.5382 20.5341C62.1027 20.7992 61.7443 21.1738 61.4988 21.6207L87.6288 37.5919L113.759 21.6207Z" fill="url(#paint6_linear_1355_266)"/>
<path d="M61.4988 21.6207C61.2559 22.0575 61.1255 22.5514 61.125 23.0512V49.1928C61.1253 49.6973 61.2551 50.1931 61.5021 50.6329C61.7491 51.0728 62.1049 51.4417 62.5354 51.7045L86.0918 66.1004C86.5537 66.383 87.0845 66.5328 87.626 66.5333L87.6288 37.5919L61.4988 21.6207Z" fill="url(#paint7_linear_1355_266)"/>
<path d="M113.759 21.6207C114.002 22.0575 114.126 22.5514 114.127 23.0512V49.1928C114.127 49.6973 113.997 50.1931 113.75 50.6329C113.503 51.0728 113.147 51.4417 112.716 51.7045L89.1601 66.1004C88.6982 66.383 88.1674 66.5328 87.626 66.5333L87.6288 37.5919L113.759 21.6207Z" fill="url(#paint8_linear_1355_266)"/>
</g>
<g filter="url(#filter3_bi_1355_266)">
<path d="M168.524 56.7417C168.279 56.2949 167.92 55.9203 167.485 55.6552L143.928 41.2593C143.466 40.9773 142.936 40.8281 142.394 40.8281C141.853 40.8281 141.322 40.9773 140.86 41.2593L117.304 55.6552C116.868 55.9203 116.51 56.2949 116.264 56.7417L142.394 72.7129L168.524 56.7417Z" fill="url(#paint9_linear_1355_266)"/>
<path d="M116.264 56.7417C116.022 57.1786 115.891 57.6725 115.891 58.1723V84.3139C115.891 84.8184 116.021 85.3142 116.268 85.754C116.515 86.1939 116.871 86.5628 117.301 86.8256L140.857 101.222C141.319 101.504 141.85 101.654 142.392 101.654L142.394 72.7129L116.264 56.7417Z" fill="url(#paint10_linear_1355_266)"/>
<path d="M168.524 56.7417C168.767 57.1786 168.892 57.6725 168.893 58.1723V84.3139C168.892 84.8184 168.762 85.3142 168.515 85.754C168.268 86.1939 167.913 86.5628 167.482 86.8256L143.926 101.222C143.464 101.504 142.933 101.654 142.392 101.654L142.394 72.7129L168.524 56.7417Z" fill="url(#paint11_linear_1355_266)"/>
</g>
<g filter="url(#filter4_bi_1355_266)">
<path d="M113.759 97.0191C113.513 96.5722 113.155 96.1976 112.719 95.9325L89.1629 81.5367C88.7009 81.2547 88.17 81.1055 87.6288 81.1055C87.0875 81.1055 86.5567 81.2547 86.0947 81.5367L62.5382 95.9325C62.1027 96.1976 61.7443 96.5722 61.4988 97.0191L87.6288 112.99L113.759 97.0191Z" fill="url(#paint12_linear_1355_266)"/>
<path d="M61.4988 97.0191C61.2559 97.4559 61.1255 97.9498 61.125 98.4496V124.591C61.1253 125.096 61.2551 125.592 61.5021 126.031C61.7491 126.471 62.1049 126.84 62.5354 127.103L86.0918 141.499C86.5537 141.781 87.0845 141.931 87.626 141.932L87.6288 112.99L61.4988 97.0191Z" fill="url(#paint13_linear_1355_266)"/>
<path d="M113.759 97.0191C114.002 97.4559 114.126 97.9498 114.127 98.4496V124.591C114.127 125.096 113.997 125.592 113.75 126.031C113.503 126.471 113.147 126.84 112.716 127.103L89.1601 141.499C88.6982 141.781 88.1674 141.931 87.626 141.932L87.6288 112.99L113.759 97.0191Z" fill="url(#paint14_linear_1355_266)"/>
</g>
<g filter="url(#filter5_bi_1355_266)">
<path d="M120.033 19.7318C119.729 19.1778 119.284 18.7132 118.744 18.3846L89.5358 0.53467C88.963 0.184999 88.3048 0 87.6337 0C86.9625 0 86.3043 0.184999 85.7315 0.53467L56.5232 18.3846C55.9832 18.7132 55.5388 19.1778 55.2344 19.7318L87.6337 39.5314L120.033 19.7318Z" fill="url(#paint15_linear_1355_266)" fill-opacity="0.2"/>
<path d="M87.6337 38.2477L56.8882 19.4588C56.9538 19.4094 57.0221 19.3632 57.0926 19.3202L57.0943 19.3192L86.3021 1.46958C86.3022 1.4695 86.3025 1.46935 86.3026 1.46927C86.7035 1.22465 87.164 1.09531 87.6337 1.09531C88.1035 1.09531 88.5642 1.22481 88.9652 1.46958L118.173 19.3192L118.175 19.3202C118.245 19.3632 118.313 19.4094 118.379 19.4588L87.6337 38.2477Z" stroke="url(#paint16_linear_1355_266)" stroke-opacity="0.1" stroke-width="2.19062"/>
</g>
<g filter="url(#filter6_bi_1355_266)">
<path d="M55.2257 19.7305C54.9251 20.271 54.7668 20.8791 54.7656 21.4976V53.9115C54.766 54.5369 54.927 55.1517 55.2332 55.6971C55.5394 56.2424 55.9806 56.6999 56.5145 57.0258L85.7227 74.8757C86.2954 75.2261 86.9536 75.4118 87.6249 75.4124V39.53L55.2257 19.7305Z" fill="url(#paint17_linear_1355_266)" fill-opacity="0.2"/>
<path d="M57.0856 56.0912L57.0851 56.0909C56.7114 55.8628 56.4026 55.5425 56.1882 55.1608C55.9739 54.7791 55.8612 54.3488 55.8609 53.911C55.8609 53.911 55.8609 53.9109 55.8609 53.9108L55.8609 21.4987C55.861 21.467 55.8617 21.4352 55.8629 21.4036L86.5296 40.1443V74.0689C86.4493 74.0307 86.3708 73.9881 86.2944 73.9414L86.2939 73.9411L57.0856 56.0912Z" stroke="url(#paint18_linear_1355_266)" stroke-opacity="0.1" stroke-width="2.19062"/>
</g>
<g filter="url(#filter7_bi_1355_266)">
<path d="M120.016 19.7305C120.317 20.271 120.475 20.8791 120.477 21.4976V53.9115C120.476 54.5369 120.315 55.1517 120.009 55.6971C119.703 56.2424 119.261 56.6999 118.728 57.0258L89.5194 74.8757C88.9467 75.2261 88.2885 75.4118 87.6172 75.4124V39.53L120.016 19.7305Z" fill="url(#paint19_linear_1355_266)" fill-opacity="0.2"/>
<path d="M118.157 56.0909L118.156 56.0912L88.9482 73.9411L88.9477 73.9414C88.8714 73.9881 88.7928 74.0306 88.7125 74.0689V40.1443L119.379 21.4036C119.38 21.4352 119.381 21.467 119.381 21.4988C119.381 21.4991 119.381 21.4994 119.381 21.4997L119.381 53.9109C119.381 54.3486 119.268 54.779 119.054 55.1608C118.84 55.5425 118.531 55.8628 118.157 56.0909Z" stroke="url(#paint20_linear_1355_266)" stroke-opacity="0.1" stroke-width="2.19062"/>
</g>
<g filter="url(#filter8_bi_1355_266)">
<path d="M174.791 53.2592C174.486 52.7051 174.042 52.2406 173.502 51.9119L144.294 34.062C143.721 33.7123 143.063 33.5273 142.391 33.5273C141.72 33.5273 141.062 33.7123 140.489 34.062L111.281 51.9119C110.741 52.2406 110.297 52.7051 109.992 53.2592L142.391 73.0624L174.791 53.2592Z" fill="url(#paint21_linear_1355_266)" fill-opacity="0.2"/>
<path d="M142.391 71.7787L111.646 52.9862C111.712 52.9368 111.78 52.8905 111.85 52.8476L111.852 52.8465L141.06 34.9969C141.06 34.9968 141.06 34.9967 141.06 34.9966C141.461 34.752 141.922 34.6227 142.391 34.6227C142.861 34.6227 143.322 34.7521 143.723 34.9968C143.723 34.9969 143.723 34.9969 143.723 34.9969L172.931 52.8465L172.933 52.8476C173.003 52.8905 173.071 52.9368 173.137 52.9862L142.391 71.7787Z" stroke="url(#paint22_linear_1355_266)" stroke-opacity="0.1" stroke-width="2.19062"/>
</g>
<g filter="url(#filter9_bi_1355_266)">
<path d="M109.991 53.2695C109.69 53.8112 109.532 54.4206 109.531 55.0403V87.4542C109.532 88.0796 109.693 88.6945 109.999 89.2398C110.305 89.7851 110.746 90.2426 111.28 90.5685L140.488 108.418C141.061 108.769 141.719 108.954 142.391 108.955V73.0727L109.991 53.2695Z" fill="url(#paint23_linear_1355_266)" fill-opacity="0.2"/>
<path d="M111.851 89.6336L111.851 89.6339L141.06 107.484L141.06 107.484C141.136 107.531 141.215 107.573 141.295 107.612V73.687L110.629 54.9428C110.627 54.9754 110.627 55.0081 110.627 55.0408C110.627 55.041 110.627 55.0411 110.627 55.0413L109.531 55.0403L111.851 89.6336ZM111.851 89.6336C111.477 89.4055 111.168 89.0852 110.954 88.7035C110.74 88.3218 110.627 87.8915 110.627 87.4538M111.851 89.6336L110.627 87.4538M110.627 87.4538C110.627 87.4537 110.627 87.4536 110.627 87.4536L110.627 87.4538Z" stroke="url(#paint24_linear_1355_266)" stroke-opacity="0.1" stroke-width="2.19062"/>
</g>
<g filter="url(#filter10_bi_1355_266)">
<path d="M174.774 53.2695C175.075 53.8112 175.234 54.4206 175.234 55.0403V87.4542C175.234 88.0796 175.073 88.6945 174.767 89.2398C174.46 89.7851 174.019 90.2426 173.485 90.5685L144.277 108.418C143.705 108.769 143.046 108.954 142.375 108.955V73.0727L174.774 53.2695Z" fill="url(#paint25_linear_1355_266)" fill-opacity="0.2"/>
<path d="M172.915 89.6336L172.914 89.6339L143.706 107.484L143.706 107.484C143.629 107.531 143.551 107.573 143.47 107.612V73.687L174.137 54.9428C174.138 54.9755 174.139 55.0084 174.139 55.0413V87.4536C174.139 87.8913 174.026 88.3218 173.812 88.7035C173.597 89.0852 173.288 89.4055 172.915 89.6336Z" stroke="url(#paint26_linear_1355_266)" stroke-opacity="0.1" stroke-width="2.19062"/>
</g>
<g filter="url(#filter11_bi_1355_266)">
<path d="M65.2673 53.2592C64.9629 52.7051 64.5185 52.2406 63.9785 51.9119L34.7702 34.062C34.1973 33.7123 33.5392 33.5273 32.868 33.5273C32.1969 33.5273 31.5387 33.7123 30.9658 34.062L1.75757 51.9119C1.21754 52.2406 0.77315 52.7051 0.46875 53.2592L32.868 73.0624L65.2673 53.2592Z" fill="url(#paint27_linear_1355_266)" fill-opacity="0.2"/>
<path d="M32.868 71.7787L2.12246 52.9862C2.18816 52.9368 2.2564 52.8905 2.32699 52.8476L2.32872 52.8465L31.5365 34.9969C31.5367 34.9968 31.5368 34.9967 31.537 34.9966C31.9379 34.752 32.3984 34.6227 32.868 34.6227C33.3378 34.6227 33.7985 34.7521 34.1994 34.9968C34.1995 34.9969 34.1995 34.9969 34.1996 34.9969L63.4073 52.8465L63.4091 52.8476C63.4797 52.8905 63.5479 52.9368 63.6136 52.9862L32.868 71.7787Z" stroke="url(#paint28_linear_1355_266)" stroke-opacity="0.1" stroke-width="2.19062"/>
</g>
<g filter="url(#filter12_bi_1355_266)">
<path d="M0.46003 53.2695C0.158888 53.8112 0.000574297 54.4206 0 55.0403L0 87.4542C0.000348223 88.0796 0.161356 88.6945 0.467587 89.2398C0.773818 89.7851 1.215 90.2426 1.74885 90.5685L30.9571 108.418C31.5298 108.769 32.188 108.954 32.8593 108.955V73.0727L0.46003 53.2695Z" fill="url(#paint29_linear_1355_266)" fill-opacity="0.2"/>
<path d="M2.3195 89.6336L2.32 89.6339L31.5283 107.484L31.5288 107.484C31.6051 107.531 31.6837 107.573 31.764 107.612V73.687L1.0973 54.9428C1.09601 54.9754 1.09535 55.0081 1.09531 55.0408C1.09531 55.041 1.09531 55.0411 1.09531 55.0413L0 55.0403L2.3195 89.6336ZM2.3195 89.6336C1.94581 89.4055 1.63698 89.0852 1.42262 88.7035C1.20829 88.3218 1.09559 87.8915 1.09531 87.4538M2.3195 89.6336L1.09531 87.4538M1.09531 87.4538C1.09531 87.4537 1.09531 87.4536 1.09531 87.4536L1.09531 87.4538Z" stroke="url(#paint30_linear_1355_266)" stroke-opacity="0.1" stroke-width="2.19062"/>
</g>
<g filter="url(#filter13_bi_1355_266)">
<path d="M65.2587 53.2695C65.5598 53.8112 65.7181 54.4206 65.7187 55.0403V87.4542C65.7183 88.0796 65.5573 88.6945 65.2511 89.2398C64.9449 89.7851 64.5037 90.2426 63.9698 90.5685L34.7616 108.418C34.1889 108.769 33.5307 108.954 32.8594 108.955V73.0727L65.2587 53.2695Z" fill="url(#paint31_linear_1355_266)" fill-opacity="0.2"/>
<path d="M63.3992 89.6336L63.3987 89.6339L34.1904 107.484L34.1899 107.484C34.1136 107.531 34.035 107.573 33.9547 107.612V73.687L64.6214 54.9428C64.6227 54.9755 64.6233 55.0084 64.6234 55.0413V87.4536C64.6231 87.8914 64.5104 88.3218 64.2961 88.7035C64.0817 89.0852 63.7729 89.4055 63.3992 89.6336Z" stroke="url(#paint32_linear_1355_266)" stroke-opacity="0.1" stroke-width="2.19062"/>
</g>
<g filter="url(#filter14_bi_1355_266)">
<path d="M120.033 89.7279C119.729 89.1739 119.284 88.7093 118.744 88.3807L89.5358 70.5308C88.963 70.1811 88.3048 69.9961 87.6337 69.9961C86.9625 69.9961 86.3043 70.1811 85.7315 70.5308L56.5232 88.3807C55.9832 88.7093 55.5388 89.1739 55.2344 89.7279L87.6337 109.527L120.033 89.7279Z" fill="url(#paint33_linear_1355_266)" fill-opacity="0.2"/>
<path d="M88.9652 71.4657L118.173 89.3153L118.175 89.3163C118.245 89.3593 118.313 89.4055 118.379 89.4549L87.6337 108.244L56.8882 89.4549C56.9538 89.4055 57.0221 89.3593 57.0926 89.3163L57.0943 89.3153L86.3021 71.4657C86.3022 71.4656 86.3025 71.4654 86.3026 71.4654C86.7035 71.2207 87.164 71.0914 87.6337 71.0914C88.1035 71.0914 88.5642 71.2209 88.9652 71.4657Z" stroke="url(#paint34_linear_1355_266)" stroke-opacity="0.1" stroke-width="2.19062"/>
</g>
<g filter="url(#filter15_bi_1355_266)">
<path d="M55.2257 89.7305C54.9251 90.271 54.7668 90.8791 54.7656 91.4976V123.911C54.766 124.537 54.927 125.152 55.2332 125.697C55.5394 126.242 55.9806 126.7 56.5145 127.026L85.7227 144.876C86.2954 145.226 86.9536 145.412 87.6249 145.412V109.53L55.2257 89.7305Z" fill="url(#paint35_linear_1355_266)" fill-opacity="0.2"/>
<path d="M57.0856 126.091L57.0851 126.091C56.7114 125.863 56.4026 125.543 56.1882 125.161C55.9739 124.779 55.8612 124.349 55.8609 123.911C55.8609 123.911 55.8609 123.911 55.8609 123.911L55.8609 91.4987C55.861 91.467 55.8617 91.4352 55.8629 91.4036L86.5296 110.144V144.069C86.4493 144.031 86.3708 143.988 86.2944 143.941L86.2939 143.941L57.0856 126.091Z" stroke="url(#paint36_linear_1355_266)" stroke-opacity="0.1" stroke-width="2.19062"/>
</g>
<g filter="url(#filter16_bi_1355_266)">
<path d="M120.016 89.7305C120.317 90.271 120.475 90.8791 120.477 91.4976V123.911C120.476 124.537 120.315 125.152 120.009 125.697C119.703 126.242 119.261 126.7 118.728 127.026L89.5194 144.876C88.9467 145.226 88.2885 145.412 87.6172 145.412V109.53L120.016 89.7305Z" fill="url(#paint37_linear_1355_266)" fill-opacity="0.2"/>
<path d="M118.157 126.091L118.156 126.091L88.9482 143.941L88.9477 143.941C88.8714 143.988 88.7928 144.031 88.7125 144.069V110.144L119.379 91.4036C119.38 91.4352 119.381 91.467 119.381 91.4988C119.381 91.4991 119.381 91.4994 119.381 91.4997L119.381 123.911C119.381 124.349 119.268 124.779 119.054 125.161C118.84 125.543 118.531 125.863 118.157 126.091Z" stroke="url(#paint38_linear_1355_266)" stroke-opacity="0.1" stroke-width="2.19062"/>
</g>
<defs>
<filter id="filter0_bi_1355_266" x="-11.3079" y="23.1648" width="88.3365" height="96.1607" filterUnits="userSpaceOnUse" color-interpolation-filters="sRGB">
<feFlood flood-opacity="0" result="BackgroundImageFix"/>
<feGaussianBlur in="BackgroundImageFix" stdDeviation="8.83364"/>
<feComposite in2="SourceAlpha" operator="in" result="effect1_backgroundBlur_1355_266"/>
<feBlend mode="normal" in="SourceGraphic" in2="effect1_backgroundBlur_1355_266" result="shape"/>
<feColorMatrix in="SourceAlpha" type="matrix" values="0 0 0 0 0 0 0 0 0 0 0 0 0 0 0 0 0 0 127 0" result="hardAlpha"/>
<feOffset dy="2.94455"/>
<feGaussianBlur stdDeviation="5.88909"/>
<feComposite in2="hardAlpha" operator="arithmetic" k2="-1" k3="1"/>
<feColorMatrix type="matrix" values="0 0 0 0 1 0 0 0 0 1 0 0 0 0 1 0 0 0 0.4 0"/>
<feBlend mode="normal" in2="shape" result="effect2_innerShadow_1355_266"/>
</filter>
<filter id="filter1_bi_1355_266" x="-11.3079" y="23.1648" width="88.3365" height="96.1607" filterUnits="userSpaceOnUse" color-interpolation-filters="sRGB">
<feFlood flood-opacity="0" result="BackgroundImageFix"/>
<feGaussianBlur in="BackgroundImageFix" stdDeviation="8.83364"/>
<feComposite in2="SourceAlpha" operator="in" result="effect1_backgroundBlur_1355_266"/>
<feBlend mode="normal" in="SourceGraphic" in2="effect1_backgroundBlur_1355_266" result="shape"/>
<feColorMatrix in="SourceAlpha" type="matrix" values="0 0 0 0 0 0 0 0 0 0 0 0 0 0 0 0 0 0 127 0" result="hardAlpha"/>
<feOffset dy="2.94455"/>
<feGaussianBlur stdDeviation="5.88909"/>
<feComposite in2="hardAlpha" operator="arithmetic" k2="-1" k3="1"/>
<feColorMatrix type="matrix" values="0 0 0 0 1 0 0 0 0 1 0 0 0 0 1 0 0 0 0.4 0"/>
<feBlend mode="normal" in2="shape" result="effect2_innerShadow_1355_266"/>
</filter>
<filter id="filter2_bi_1355_266" x="43.4577" y="-11.9602" width="88.3365" height="96.1607" filterUnits="userSpaceOnUse" color-interpolation-filters="sRGB">
<feFlood flood-opacity="0" result="BackgroundImageFix"/>
<feGaussianBlur in="BackgroundImageFix" stdDeviation="8.83364"/>
<feComposite in2="SourceAlpha" operator="in" result="effect1_backgroundBlur_1355_266"/>
<feBlend mode="normal" in="SourceGraphic" in2="effect1_backgroundBlur_1355_266" result="shape"/>
<feColorMatrix in="SourceAlpha" type="matrix" values="0 0 0 0 0 0 0 0 0 0 0 0 0 0 0 0 0 0 127 0" result="hardAlpha"/>
<feOffset dy="2.94455"/>
<feGaussianBlur stdDeviation="5.88909"/>
<feComposite in2="hardAlpha" operator="arithmetic" k2="-1" k3="1"/>
<feColorMatrix type="matrix" values="0 0 0 0 1 0 0 0 0 1 0 0 0 0 1 0 0 0 0.4 0"/>
<feBlend mode="normal" in2="shape" result="effect2_innerShadow_1355_266"/>
</filter>
<filter id="filter3_bi_1355_266" x="98.2233" y="23.1608" width="88.3365" height="96.1607" filterUnits="userSpaceOnUse" color-interpolation-filters="sRGB">
<feFlood flood-opacity="0" result="BackgroundImageFix"/>
<feGaussianBlur in="BackgroundImageFix" stdDeviation="8.83364"/>
<feComposite in2="SourceAlpha" operator="in" result="effect1_backgroundBlur_1355_266"/>
<feBlend mode="normal" in="SourceGraphic" in2="effect1_backgroundBlur_1355_266" result="shape"/>
<feColorMatrix in="SourceAlpha" type="matrix" values="0 0 0 0 0 0 0 0 0 0 0 0 0 0 0 0 0 0 127 0" result="hardAlpha"/>
<feOffset dy="2.94455"/>
<feGaussianBlur stdDeviation="5.88909"/>
<feComposite in2="hardAlpha" operator="arithmetic" k2="-1" k3="1"/>
<feColorMatrix type="matrix" values="0 0 0 0 1 0 0 0 0 1 0 0 0 0 1 0 0 0 0.4 0"/>
<feBlend mode="normal" in2="shape" result="effect2_innerShadow_1355_266"/>
</filter>
<filter id="filter4_bi_1355_266" x="43.4577" y="63.4382" width="88.3365" height="96.1607" filterUnits="userSpaceOnUse" color-interpolation-filters="sRGB">
<feFlood flood-opacity="0" result="BackgroundImageFix"/>
<feGaussianBlur in="BackgroundImageFix" stdDeviation="8.83364"/>
<feComposite in2="SourceAlpha" operator="in" result="effect1_backgroundBlur_1355_266"/>
<feBlend mode="normal" in="SourceGraphic" in2="effect1_backgroundBlur_1355_266" result="shape"/>
<feColorMatrix in="SourceAlpha" type="matrix" values="0 0 0 0 0 0 0 0 0 0 0 0 0 0 0 0 0 0 127 0" result="hardAlpha"/>
<feOffset dy="2.94455"/>
<feGaussianBlur stdDeviation="5.88909"/>
<feComposite in2="hardAlpha" operator="arithmetic" k2="-1" k3="1"/>
<feColorMatrix type="matrix" values="0 0 0 0 1 0 0 0 0 1 0 0 0 0 1 0 0 0 0.4 0"/>
<feBlend mode="normal" in2="shape" result="effect2_innerShadow_1355_266"/>
</filter>
<filter id="filter5_bi_1355_266" x="11.422" y="-43.8124" width="152.424" height="127.156" filterUnits="userSpaceOnUse" color-interpolation-filters="sRGB">
<feFlood flood-opacity="0" result="BackgroundImageFix"/>
<feGaussianBlur in="BackgroundImageFix" stdDeviation="21.9062"/>
<feComposite in2="SourceAlpha" operator="in" result="effect1_backgroundBlur_1355_266"/>
<feBlend mode="normal" in="SourceGraphic" in2="effect1_backgroundBlur_1355_266" result="shape"/>
<feColorMatrix in="SourceAlpha" type="matrix" values="0 0 0 0 0 0 0 0 0 0 0 0 0 0 0 0 0 0 127 0" result="hardAlpha"/>
<feOffset dy="14.6041"/>
<feGaussianBlur stdDeviation="10.9531"/>
<feComposite in2="hardAlpha" operator="arithmetic" k2="-1" k3="1"/>
<feColorMatrix type="matrix" values="0 0 0 0 1 0 0 0 0 1 0 0 0 0 1 0 0 0 0.15 0"/>
<feBlend mode="normal" in2="shape" result="effect2_innerShadow_1355_266"/>
</filter>
<filter id="filter6_bi_1355_266" x="10.9532" y="-24.0819" width="120.484" height="143.307" filterUnits="userSpaceOnUse" color-interpolation-filters="sRGB">
<feFlood flood-opacity="0" result="BackgroundImageFix"/>
<feGaussianBlur in="BackgroundImageFix" stdDeviation="21.9062"/>
<feComposite in2="SourceAlpha" operator="in" result="effect1_backgroundBlur_1355_266"/>
<feBlend mode="normal" in="SourceGraphic" in2="effect1_backgroundBlur_1355_266" result="shape"/>
<feColorMatrix in="SourceAlpha" type="matrix" values="0 0 0 0 0 0 0 0 0 0 0 0 0 0 0 0 0 0 127 0" result="hardAlpha"/>
<feOffset dy="14.6041"/>
<feGaussianBlur stdDeviation="10.9531"/>
<feComposite in2="hardAlpha" operator="arithmetic" k2="-1" k3="1"/>
<feColorMatrix type="matrix" values="0 0 0 0 1 0 0 0 0 1 0 0 0 0 1 0 0 0 0.15 0"/>
<feBlend mode="normal" in2="shape" result="effect2_innerShadow_1355_266"/>
</filter>
<filter id="filter7_bi_1355_266" x="43.8048" y="-24.0819" width="120.484" height="143.307" filterUnits="userSpaceOnUse" color-interpolation-filters="sRGB">
<feFlood flood-opacity="0" result="BackgroundImageFix"/>
<feGaussianBlur in="BackgroundImageFix" stdDeviation="21.9062"/>
<feComposite in2="SourceAlpha" operator="in" result="effect1_backgroundBlur_1355_266"/>
<feBlend mode="normal" in="SourceGraphic" in2="effect1_backgroundBlur_1355_266" result="shape"/>
<feColorMatrix in="SourceAlpha" type="matrix" values="0 0 0 0 0 0 0 0 0 0 0 0 0 0 0 0 0 0 127 0" result="hardAlpha"/>
<feOffset dy="14.6041"/>
<feGaussianBlur stdDeviation="10.9531"/>
<feComposite in2="hardAlpha" operator="arithmetic" k2="-1" k3="1"/>
<feColorMatrix type="matrix" values="0 0 0 0 1 0 0 0 0 1 0 0 0 0 1 0 0 0 0.15 0"/>
<feBlend mode="normal" in2="shape" result="effect2_innerShadow_1355_266"/>
</filter>
<filter id="filter8_bi_1355_266" x="66.1798" y="-10.2851" width="152.424" height="127.16" filterUnits="userSpaceOnUse" color-interpolation-filters="sRGB">
<feFlood flood-opacity="0" result="BackgroundImageFix"/>
<feGaussianBlur in="BackgroundImageFix" stdDeviation="21.9062"/>
<feComposite in2="SourceAlpha" operator="in" result="effect1_backgroundBlur_1355_266"/>
<feBlend mode="normal" in="SourceGraphic" in2="effect1_backgroundBlur_1355_266" result="shape"/>
<feColorMatrix in="SourceAlpha" type="matrix" values="0 0 0 0 0 0 0 0 0 0 0 0 0 0 0 0 0 0 127 0" result="hardAlpha"/>
<feOffset dy="14.6041"/>
<feGaussianBlur stdDeviation="10.9531"/>
<feComposite in2="hardAlpha" operator="arithmetic" k2="-1" k3="1"/>
<feColorMatrix type="matrix" values="0 0 0 0 1 0 0 0 0 1 0 0 0 0 1 0 0 0 0.15 0"/>
<feBlend mode="normal" in2="shape" result="effect2_innerShadow_1355_266"/>
</filter>
<filter id="filter9_bi_1355_266" x="65.7188" y="9.45712" width="120.484" height="143.31" filterUnits="userSpaceOnUse" color-interpolation-filters="sRGB">
<feFlood flood-opacity="0" result="BackgroundImageFix"/>
<feGaussianBlur in="BackgroundImageFix" stdDeviation="21.9062"/>
<feComposite in2="SourceAlpha" operator="in" result="effect1_backgroundBlur_1355_266"/>
<feBlend mode="normal" in="SourceGraphic" in2="effect1_backgroundBlur_1355_266" result="shape"/>
<feColorMatrix in="SourceAlpha" type="matrix" values="0 0 0 0 0 0 0 0 0 0 0 0 0 0 0 0 0 0 127 0" result="hardAlpha"/>
<feOffset dy="14.6041"/>
<feGaussianBlur stdDeviation="10.9531"/>
<feComposite in2="hardAlpha" operator="arithmetic" k2="-1" k3="1"/>
<feColorMatrix type="matrix" values="0 0 0 0 1 0 0 0 0 1 0 0 0 0 1 0 0 0 0.15 0"/>
<feBlend mode="normal" in2="shape" result="effect2_innerShadow_1355_266"/>
</filter>
<filter id="filter10_bi_1355_266" x="98.5626" y="9.45712" width="120.484" height="143.31" filterUnits="userSpaceOnUse" color-interpolation-filters="sRGB">
<feFlood flood-opacity="0" result="BackgroundImageFix"/>
<feGaussianBlur in="BackgroundImageFix" stdDeviation="21.9062"/>
<feComposite in2="SourceAlpha" operator="in" result="effect1_backgroundBlur_1355_266"/>
<feBlend mode="normal" in="SourceGraphic" in2="effect1_backgroundBlur_1355_266" result="shape"/>
<feColorMatrix in="SourceAlpha" type="matrix" values="0 0 0 0 0 0 0 0 0 0 0 0 0 0 0 0 0 0 127 0" result="hardAlpha"/>
<feOffset dy="14.6041"/>
<feGaussianBlur stdDeviation="10.9531"/>
<feComposite in2="hardAlpha" operator="arithmetic" k2="-1" k3="1"/>
<feColorMatrix type="matrix" values="0 0 0 0 1 0 0 0 0 1 0 0 0 0 1 0 0 0 0.15 0"/>
<feBlend mode="normal" in2="shape" result="effect2_innerShadow_1355_266"/>
</filter>
<filter id="filter11_bi_1355_266" x="-43.3437" y="-10.2851" width="152.424" height="127.16" filterUnits="userSpaceOnUse" color-interpolation-filters="sRGB">
<feFlood flood-opacity="0" result="BackgroundImageFix"/>
<feGaussianBlur in="BackgroundImageFix" stdDeviation="21.9062"/>
<feComposite in2="SourceAlpha" operator="in" result="effect1_backgroundBlur_1355_266"/>
<feBlend mode="normal" in="SourceGraphic" in2="effect1_backgroundBlur_1355_266" result="shape"/>
<feColorMatrix in="SourceAlpha" type="matrix" values="0 0 0 0 0 0 0 0 0 0 0 0 0 0 0 0 0 0 127 0" result="hardAlpha"/>
<feOffset dy="14.6041"/>
<feGaussianBlur stdDeviation="10.9531"/>
<feComposite in2="hardAlpha" operator="arithmetic" k2="-1" k3="1"/>
<feColorMatrix type="matrix" values="0 0 0 0 1 0 0 0 0 1 0 0 0 0 1 0 0 0 0.15 0"/>
<feBlend mode="normal" in2="shape" result="effect2_innerShadow_1355_266"/>
</filter>
<filter id="filter12_bi_1355_266" x="-43.8124" y="9.45712" width="120.484" height="143.31" filterUnits="userSpaceOnUse" color-interpolation-filters="sRGB">
<feFlood flood-opacity="0" result="BackgroundImageFix"/>
<feGaussianBlur in="BackgroundImageFix" stdDeviation="21.9062"/>
<feComposite in2="SourceAlpha" operator="in" result="effect1_backgroundBlur_1355_266"/>
<feBlend mode="normal" in="SourceGraphic" in2="effect1_backgroundBlur_1355_266" result="shape"/>
<feColorMatrix in="SourceAlpha" type="matrix" values="0 0 0 0 0 0 0 0 0 0 0 0 0 0 0 0 0 0 127 0" result="hardAlpha"/>
<feOffset dy="14.6041"/>
<feGaussianBlur stdDeviation="10.9531"/>
<feComposite in2="hardAlpha" operator="arithmetic" k2="-1" k3="1"/>
<feColorMatrix type="matrix" values="0 0 0 0 1 0 0 0 0 1 0 0 0 0 1 0 0 0 0.15 0"/>
<feBlend mode="normal" in2="shape" result="effect2_innerShadow_1355_266"/>
</filter>
<filter id="filter13_bi_1355_266" x="-10.953" y="9.45712" width="120.484" height="143.31" filterUnits="userSpaceOnUse" color-interpolation-filters="sRGB">
<feFlood flood-opacity="0" result="BackgroundImageFix"/>
<feGaussianBlur in="BackgroundImageFix" stdDeviation="21.9062"/>
<feComposite in2="SourceAlpha" operator="in" result="effect1_backgroundBlur_1355_266"/>
<feBlend mode="normal" in="SourceGraphic" in2="effect1_backgroundBlur_1355_266" result="shape"/>
<feColorMatrix in="SourceAlpha" type="matrix" values="0 0 0 0 0 0 0 0 0 0 0 0 0 0 0 0 0 0 127 0" result="hardAlpha"/>
<feOffset dy="14.6041"/>
<feGaussianBlur stdDeviation="10.9531"/>
<feComposite in2="hardAlpha" operator="arithmetic" k2="-1" k3="1"/>
<feColorMatrix type="matrix" values="0 0 0 0 1 0 0 0 0 1 0 0 0 0 1 0 0 0 0.15 0"/>
<feBlend mode="normal" in2="shape" result="effect2_innerShadow_1355_266"/>
</filter>
<filter id="filter14_bi_1355_266" x="11.422" y="26.1837" width="152.424" height="127.156" filterUnits="userSpaceOnUse" color-interpolation-filters="sRGB">
<feFlood flood-opacity="0" result="BackgroundImageFix"/>
<feGaussianBlur in="BackgroundImageFix" stdDeviation="21.9062"/>
<feComposite in2="SourceAlpha" operator="in" result="effect1_backgroundBlur_1355_266"/>
<feBlend mode="normal" in="SourceGraphic" in2="effect1_backgroundBlur_1355_266" result="shape"/>
<feColorMatrix in="SourceAlpha" type="matrix" values="0 0 0 0 0 0 0 0 0 0 0 0 0 0 0 0 0 0 127 0" result="hardAlpha"/>
<feOffset dy="14.6041"/>
<feGaussianBlur stdDeviation="10.9531"/>
<feComposite in2="hardAlpha" operator="arithmetic" k2="-1" k3="1"/>
<feColorMatrix type="matrix" values="0 0 0 0 1 0 0 0 0 1 0 0 0 0 1 0 0 0 0.15 0"/>
<feBlend mode="normal" in2="shape" result="effect2_innerShadow_1355_266"/>
</filter>
<filter id="filter15_bi_1355_266" x="10.9532" y="45.9181" width="120.484" height="143.307" filterUnits="userSpaceOnUse" color-interpolation-filters="sRGB">
<feFlood flood-opacity="0" result="BackgroundImageFix"/>
<feGaussianBlur in="BackgroundImageFix" stdDeviation="21.9062"/>
<feComposite in2="SourceAlpha" operator="in" result="effect1_backgroundBlur_1355_266"/>
<feBlend mode="normal" in="SourceGraphic" in2="effect1_backgroundBlur_1355_266" result="shape"/>
<feColorMatrix in="SourceAlpha" type="matrix" values="0 0 0 0 0 0 0 0 0 0 0 0 0 0 0 0 0 0 127 0" result="hardAlpha"/>
<feOffset dy="14.6041"/>
<feGaussianBlur stdDeviation="10.9531"/>
<feComposite in2="hardAlpha" operator="arithmetic" k2="-1" k3="1"/>
<feColorMatrix type="matrix" values="0 0 0 0 1 0 0 0 0 1 0 0 0 0 1 0 0 0 0.15 0"/>
<feBlend mode="normal" in2="shape" result="effect2_innerShadow_1355_266"/>
</filter>
<filter id="filter16_bi_1355_266" x="43.8048" y="45.9181" width="120.484" height="143.307" filterUnits="userSpaceOnUse" color-interpolation-filters="sRGB">
<feFlood flood-opacity="0" result="BackgroundImageFix"/>
<feGaussianBlur in="BackgroundImageFix" stdDeviation="21.9062"/>
<feComposite in2="SourceAlpha" operator="in" result="effect1_backgroundBlur_1355_266"/>
<feBlend mode="normal" in="SourceGraphic" in2="effect1_backgroundBlur_1355_266" result="shape"/>
<feColorMatrix in="SourceAlpha" type="matrix" values="0 0 0 0 0 0 0 0 0 0 0 0 0 0 0 0 0 0 127 0" result="hardAlpha"/>
<feOffset dy="14.6041"/>
<feGaussianBlur stdDeviation="10.9531"/>
<feComposite in2="hardAlpha" operator="arithmetic" k2="-1" k3="1"/>
<feColorMatrix type="matrix" values="0 0 0 0 1 0 0 0 0 1 0 0 0 0 1 0 0 0 0.15 0"/>
<feBlend mode="normal" in2="shape" result="effect2_innerShadow_1355_266"/>
</filter>
<linearGradient id="paint0_linear_1355_266" x1="8.56779" y1="52.9973" x2="66.6087" y2="60.0216" gradientUnits="userSpaceOnUse">
<stop stop-color="#8AE6CF"/>
<stop offset="1" stop-color="#3A55E7"/>
</linearGradient>
<linearGradient id="paint1_linear_1355_266" x1="8.56779" y1="52.9973" x2="66.6087" y2="60.0216" gradientUnits="userSpaceOnUse">
<stop stop-color="#8AE6CF"/>
<stop offset="1" stop-color="#3A55E7"/>
</linearGradient>
<linearGradient id="paint2_linear_1355_266" x1="8.56779" y1="52.9973" x2="66.6087" y2="60.0216" gradientUnits="userSpaceOnUse">
<stop stop-color="#8AE6CF"/>
<stop offset="1" stop-color="#3A55E7"/>
</linearGradient>
<linearGradient id="paint3_linear_1355_266" x1="8.56779" y1="52.9973" x2="66.6087" y2="60.0216" gradientUnits="userSpaceOnUse">
<stop stop-color="#8AE6CF"/>
<stop offset="1" stop-color="#3A55E7"/>
</linearGradient>
<linearGradient id="paint4_linear_1355_266" x1="8.56779" y1="52.9973" x2="66.6087" y2="60.0216" gradientUnits="userSpaceOnUse">
<stop stop-color="#8AE6CF"/>
<stop offset="1" stop-color="#3A55E7"/>
</linearGradient>
<linearGradient id="paint5_linear_1355_266" x1="8.56779" y1="52.9973" x2="66.6087" y2="60.0216" gradientUnits="userSpaceOnUse">
<stop stop-color="#8AE6CF"/>
<stop offset="1" stop-color="#3A55E7"/>
</linearGradient>
<linearGradient id="paint6_linear_1355_266" x1="63.3334" y1="17.8723" x2="121.374" y2="24.8966" gradientUnits="userSpaceOnUse">
<stop stop-color="#8AE6CF"/>
<stop offset="1" stop-color="#3A55E7"/>
</linearGradient>
<linearGradient id="paint7_linear_1355_266" x1="63.3334" y1="17.8723" x2="121.374" y2="24.8966" gradientUnits="userSpaceOnUse">
<stop stop-color="#8AE6CF"/>
<stop offset="1" stop-color="#3A55E7"/>
</linearGradient>
<linearGradient id="paint8_linear_1355_266" x1="63.3334" y1="17.8723" x2="121.374" y2="24.8966" gradientUnits="userSpaceOnUse">
<stop stop-color="#8AE6CF"/>
<stop offset="1" stop-color="#3A55E7"/>
</linearGradient>
<linearGradient id="paint9_linear_1355_266" x1="118.099" y1="52.9934" x2="176.14" y2="60.0177" gradientUnits="userSpaceOnUse">
<stop stop-color="#8AE6CF"/>
<stop offset="1" stop-color="#3A55E7"/>
</linearGradient>
<linearGradient id="paint10_linear_1355_266" x1="118.099" y1="52.9934" x2="176.14" y2="60.0177" gradientUnits="userSpaceOnUse">
<stop stop-color="#8AE6CF"/>
<stop offset="1" stop-color="#3A55E7"/>
</linearGradient>
<linearGradient id="paint11_linear_1355_266" x1="118.099" y1="52.9934" x2="176.14" y2="60.0177" gradientUnits="userSpaceOnUse">
<stop stop-color="#8AE6CF"/>
<stop offset="1" stop-color="#3A55E7"/>
</linearGradient>
<linearGradient id="paint12_linear_1355_266" x1="63.3334" y1="93.2707" x2="121.374" y2="100.295" gradientUnits="userSpaceOnUse">
<stop stop-color="#8AE6CF"/>
<stop offset="1" stop-color="#3A55E7"/>
</linearGradient>
<linearGradient id="paint13_linear_1355_266" x1="63.3334" y1="93.2707" x2="121.374" y2="100.295" gradientUnits="userSpaceOnUse">
<stop stop-color="#8AE6CF"/>
<stop offset="1" stop-color="#3A55E7"/>
</linearGradient>
<linearGradient id="paint14_linear_1355_266" x1="63.3334" y1="93.2707" x2="121.374" y2="100.295" gradientUnits="userSpaceOnUse">
<stop stop-color="#8AE6CF"/>
<stop offset="1" stop-color="#3A55E7"/>
</linearGradient>
<linearGradient id="paint15_linear_1355_266" x1="57.9343" y1="7.90628" x2="126.385" y2="23.4899" gradientUnits="userSpaceOnUse">
<stop stop-color="#6699FE"/>
<stop offset="1" stop-color="#405EFF"/>
</linearGradient>
<linearGradient id="paint16_linear_1355_266" x1="57.2593" y1="1.79688" x2="120.033" y2="1.79688" gradientUnits="userSpaceOnUse">
<stop stop-color="#C8A6FF"/>
<stop offset="1" stop-color="#69CFB5"/>
</linearGradient>
<linearGradient id="paint17_linear_1355_266" x1="56.1348" y1="30.8669" x2="92.4015" y2="33.8393" gradientUnits="userSpaceOnUse">
<stop stop-color="#6699FE"/>
<stop offset="1" stop-color="#405EFF"/>
</linearGradient>
<linearGradient id="paint18_linear_1355_266" x1="55.7925" y1="22.2615" x2="87.6249" y2="22.2615" gradientUnits="userSpaceOnUse">
<stop stop-color="#C8A6FF"/>
<stop offset="1" stop-color="#69CFB5"/>
</linearGradient>
<linearGradient id="paint19_linear_1355_266" x1="88.9863" y1="30.8669" x2="125.253" y2="33.8393" gradientUnits="userSpaceOnUse">
<stop stop-color="#6699FE"/>
<stop offset="1" stop-color="#405EFF"/>
</linearGradient>
<linearGradient id="paint20_linear_1355_266" x1="88.644" y1="22.2615" x2="120.477" y2="22.2615" gradientUnits="userSpaceOnUse">
<stop stop-color="#C8A6FF"/>
<stop offset="1" stop-color="#69CFB5"/>
</linearGradient>
<linearGradient id="paint21_linear_1355_266" x1="112.692" y1="41.4344" x2="181.143" y2="57.0167" gradientUnits="userSpaceOnUse">
<stop stop-color="#6699FE"/>
<stop offset="1" stop-color="#405EFF"/>
</linearGradient>
<linearGradient id="paint22_linear_1355_266" x1="112.017" y1="35.3244" x2="174.791" y2="35.3244" gradientUnits="userSpaceOnUse">
<stop stop-color="#C8A6FF"/>
<stop offset="1" stop-color="#69CFB5"/>
</linearGradient>
<linearGradient id="paint23_linear_1355_266" x1="110.9" y1="64.4067" x2="147.167" y2="67.3789" gradientUnits="userSpaceOnUse">
<stop stop-color="#6699FE"/>
<stop offset="1" stop-color="#405EFF"/>
</linearGradient>
<linearGradient id="paint24_linear_1355_266" x1="110.558" y1="55.8007" x2="142.391" y2="55.8007" gradientUnits="userSpaceOnUse">
<stop stop-color="#C8A6FF"/>
<stop offset="1" stop-color="#69CFB5"/>
</linearGradient>
<linearGradient id="paint25_linear_1355_266" x1="143.744" y1="64.4067" x2="180.011" y2="67.3789" gradientUnits="userSpaceOnUse">
<stop stop-color="#6699FE"/>
<stop offset="1" stop-color="#405EFF"/>
</linearGradient>
<linearGradient id="paint26_linear_1355_266" x1="143.402" y1="55.8007" x2="175.234" y2="55.8007" gradientUnits="userSpaceOnUse">
<stop stop-color="#C8A6FF"/>
<stop offset="1" stop-color="#69CFB5"/>
</linearGradient>
<linearGradient id="paint27_linear_1355_266" x1="3.16869" y1="41.4344" x2="71.6199" y2="57.0167" gradientUnits="userSpaceOnUse">
<stop stop-color="#6699FE"/>
<stop offset="1" stop-color="#405EFF"/>
</linearGradient>
<linearGradient id="paint28_linear_1355_266" x1="2.49371" y1="35.3244" x2="65.2673" y2="35.3244" gradientUnits="userSpaceOnUse">
<stop stop-color="#C8A6FF"/>
<stop offset="1" stop-color="#69CFB5"/>
</linearGradient>
<linearGradient id="paint29_linear_1355_266" x1="1.36914" y1="64.4067" x2="37.6359" y2="67.3789" gradientUnits="userSpaceOnUse">
<stop stop-color="#6699FE"/>
<stop offset="1" stop-color="#405EFF"/>
</linearGradient>
<linearGradient id="paint30_linear_1355_266" x1="1.02685" y1="55.8007" x2="32.8593" y2="55.8007" gradientUnits="userSpaceOnUse">
<stop stop-color="#C8A6FF"/>
<stop offset="1" stop-color="#69CFB5"/>
</linearGradient>
<linearGradient id="paint31_linear_1355_266" x1="34.2285" y1="64.4067" x2="70.4953" y2="67.3789" gradientUnits="userSpaceOnUse">
<stop stop-color="#6699FE"/>
<stop offset="1" stop-color="#405EFF"/>
</linearGradient>
<linearGradient id="paint32_linear_1355_266" x1="33.8862" y1="55.8007" x2="65.7187" y2="55.8007" gradientUnits="userSpaceOnUse">
<stop stop-color="#C8A6FF"/>
<stop offset="1" stop-color="#69CFB5"/>
</linearGradient>
<linearGradient id="paint33_linear_1355_266" x1="57.9343" y1="77.9024" x2="126.385" y2="93.486" gradientUnits="userSpaceOnUse">
<stop stop-color="#6699FE"/>
<stop offset="1" stop-color="#405EFF"/>
</linearGradient>
<linearGradient id="paint34_linear_1355_266" x1="57.2593" y1="71.793" x2="120.033" y2="71.793" gradientUnits="userSpaceOnUse">
<stop stop-color="#C8A6FF"/>
<stop offset="1" stop-color="#69CFB5"/>
</linearGradient>
<linearGradient id="paint35_linear_1355_266" x1="56.1348" y1="100.867" x2="92.4015" y2="103.839" gradientUnits="userSpaceOnUse">
<stop stop-color="#6699FE"/>
<stop offset="1" stop-color="#405EFF"/>
</linearGradient>
<linearGradient id="paint36_linear_1355_266" x1="55.7925" y1="92.2615" x2="87.6249" y2="92.2615" gradientUnits="userSpaceOnUse">
<stop stop-color="#C8A6FF"/>
<stop offset="1" stop-color="#69CFB5"/>
</linearGradient>
<linearGradient id="paint37_linear_1355_266" x1="88.9863" y1="100.867" x2="125.253" y2="103.839" gradientUnits="userSpaceOnUse">
<stop stop-color="#6699FE"/>
<stop offset="1" stop-color="#405EFF"/>
</linearGradient>
<linearGradient id="paint38_linear_1355_266" x1="88.644" y1="92.2615" x2="120.477" y2="92.2615" gradientUnits="userSpaceOnUse">
<stop stop-color="#C8A6FF"/>
<stop offset="1" stop-color="#69CFB5"/>
</linearGradient>
</defs>
</svg>
