<svg width="629" height="674" viewBox="0 0 629 674" fill="none" xmlns="http://www.w3.org/2000/svg">
<g filter="url(#filter0_d_1355_141)">
<g filter="url(#filter1_d_1355_141)">
<path d="M353.213 558.836C301.884 566.992 249.291 558.755 202.914 535.295L225.219 491.201C262.32 509.969 304.395 516.559 345.458 510.034L353.213 558.836Z" fill="#4F8BFF"/>
</g>
<g filter="url(#filter2_d_1355_141)">
<path d="M206.699 537.169C156.547 512.867 116.084 472.324 91.8823 422.124C67.6801 371.924 61.1605 315.016 73.3822 260.643C85.6039 206.27 115.849 157.626 159.205 122.612C202.561 87.597 256.482 68.2687 312.209 67.7659C367.937 67.2631 422.197 85.6154 466.178 119.842C510.159 154.069 541.277 202.159 554.478 256.303C567.679 310.446 562.187 367.462 538.894 418.091C515.602 468.719 475.877 509.986 426.172 535.189L403.825 491.117C443.589 470.954 475.369 437.941 494.003 397.438C512.637 356.935 517.03 311.322 506.47 268.007C495.909 224.693 471.015 186.22 435.83 158.839C400.645 131.458 357.237 116.776 312.655 117.178C268.073 117.58 224.937 133.043 190.252 161.055C155.567 189.066 131.371 227.981 121.593 271.48C111.816 314.978 117.032 360.504 136.393 400.664C155.755 440.824 188.126 473.259 228.247 492.701L206.699 537.169Z" fill="#3DB9FF"/>
</g>
<g filter="url(#filter3_d_1355_141)">
<path d="M426.225 535.162C403.19 546.849 378.466 554.851 352.952 558.877L345.249 510.067C365.66 506.846 385.44 500.444 403.868 491.095L426.225 535.162Z" fill="#4526FF"/>
</g>
</g>
<defs>
<filter id="filter0_d_1355_141" x="66.0611" y="67.1028" width="499.367" height="499.366" filterUnits="userSpaceOnUse" color-interpolation-filters="sRGB">
<feFlood flood-opacity="0" result="BackgroundImageFix"/>
<feColorMatrix in="SourceAlpha" type="matrix" values="0 0 0 0 0 0 0 0 0 0 0 0 0 0 0 0 0 0 127 0" result="hardAlpha"/>
<feOffset dx="1.30609" dy="1.95914"/>
<feGaussianBlur stdDeviation="1.30609"/>
<feComposite in2="hardAlpha" operator="out"/>
<feColorMatrix type="matrix" values="0 0 0 0 0 0 0 0 0 0 0 0 0 0 0 0 0 0 0.28 0"/>
<feBlend mode="normal" in2="BackgroundImageFix" result="effect1_dropShadow_1355_141"/>
<feBlend mode="normal" in="SourceGraphic" in2="effect1_dropShadow_1355_141" result="shape"/>
</filter>
<filter id="filter1_d_1355_141" x="96.3827" y="389.587" width="363.361" height="283.759" filterUnits="userSpaceOnUse" color-interpolation-filters="sRGB">
<feFlood flood-opacity="0" result="BackgroundImageFix"/>
<feColorMatrix in="SourceAlpha" type="matrix" values="0 0 0 0 0 0 0 0 0 0 0 0 0 0 0 0 0 0 127 0" result="hardAlpha"/>
<feOffset dy="4.91683"/>
<feGaussianBlur stdDeviation="53.2657"/>
<feComposite in2="hardAlpha" operator="out"/>
<feColorMatrix type="matrix" values="0 0 0 0 0.117647 0 0 0 0 0.839216 0 0 0 0 1 0 0 0 1 0"/>
<feBlend mode="normal" in2="BackgroundImageFix" result="effect1_dropShadow_1355_141"/>
<feBlend mode="normal" in="SourceGraphic" in2="effect1_dropShadow_1355_141" result="shape"/>
</filter>
<filter id="filter2_d_1355_141" x="42.783" y="48.0885" width="543.311" height="518.581" filterUnits="userSpaceOnUse" color-interpolation-filters="sRGB">
<feFlood flood-opacity="0" result="BackgroundImageFix"/>
<feColorMatrix in="SourceAlpha" type="matrix" values="0 0 0 0 0 0 0 0 0 0 0 0 0 0 0 0 0 0 127 0" result="hardAlpha"/>
<feOffset dy="4.91683"/>
<feGaussianBlur stdDeviation="12.2921"/>
<feComposite in2="hardAlpha" operator="out"/>
<feColorMatrix type="matrix" values="0 0 0 0 0.239216 0 0 0 0 0.72549 0 0 0 0 1 0 0 0 1 0"/>
<feBlend mode="normal" in2="BackgroundImageFix" result="effect1_dropShadow_1355_141"/>
<feBlend mode="normal" in="SourceGraphic" in2="effect1_dropShadow_1355_141" result="shape"/>
</filter>
<filter id="filter3_d_1355_141" x="320.664" y="471.427" width="130.145" height="116.951" filterUnits="userSpaceOnUse" color-interpolation-filters="sRGB">
<feFlood flood-opacity="0" result="BackgroundImageFix"/>
<feColorMatrix in="SourceAlpha" type="matrix" values="0 0 0 0 0 0 0 0 0 0 0 0 0 0 0 0 0 0 127 0" result="hardAlpha"/>
<feOffset dy="4.91683"/>
<feGaussianBlur stdDeviation="12.2921"/>
<feComposite in2="hardAlpha" operator="out"/>
<feColorMatrix type="matrix" values="0 0 0 0 0.14902 0 0 0 0 0.541176 0 0 0 0 1 0 0 0 1 0"/>
<feBlend mode="normal" in2="BackgroundImageFix" result="effect1_dropShadow_1355_141"/>
<feBlend mode="normal" in="SourceGraphic" in2="effect1_dropShadow_1355_141" result="shape"/>
</filter>
</defs>
</svg>
