<?xml version="1.0" encoding="UTF-8"?><svg id="Layer_1" xmlns="http://www.w3.org/2000/svg" xmlns:xlink="http://www.w3.org/1999/xlink" viewBox="0 0 577.72 397.45"><defs><style>.cls-1{fill:url(#linear-gradient);stroke-width:0px;}</style><linearGradient id="linear-gradient" x1="80" y1="116.46" x2="556.16" y2="434.98" gradientUnits="userSpaceOnUse"><stop offset="0" stop-color="#d41700"/><stop offset=".66" stop-color="#f08000"/><stop offset="1" stop-color="#ffb900"/></linearGradient></defs><path class="cls-1" d="M293.41,251.29q5.68-.96,5.67-6.36c0-26.58,0-53.16-.69-79.78-.98,8.38-1.96,16.77-2.93,25.15-.1.83.11,1.9-.34,2.45-.92,1.13-2.14,2.73-3.31,2.79-2.11.11-2.9-1.64-2.66-3.78.63-5.71,1.16-11.42,1.79-17.13.89-7.96,1.82-15.92,2.76-23.88.45-3.75,2.62-5.89,6.21-7.04,3.43-1.1,6.42-3.04,10.41-2.84,4.8.24,8.45,2.79,12.26,4.87,1.57.85,2.59,3.74,2.84,5.83,1.55,13.18,2.79,26.4,4.18,39.6.25,2.33-.24,4.21-2.83,4.51-2.72.32-3.05-1.93-3.26-3.81-.91-8.19-1.71-16.4-3.13-24.6v83.75c22.49,1.32,45.18,3.74,67.34,9.22,22.13,5.48,44.06,11.78,66.27,17.77,30-55.01,31.72-147.07-33.68-214.32C356.98-1.41,253.47-9.9,179.8,46.03c-75.56,57.36-92.42,156.77-55.09,231.74,42.74-16.07,87.11-24.76,132.96-26.73v-85.14c-.11-.01-.23-.03-.34-.04-.95,8.12-1.9,16.24-2.84,24.37-.1.83.11,1.87-.32,2.45-.82,1.13-1.99,2-3.01,2.98-.94-1.17-2.64-2.32-2.67-3.51-.07-3.56.45-7.15.85-10.72,1.11-9.86,2.33-19.71,3.38-29.58.46-4.3,2.34-7.08,6.71-8.18,2.33-.59,4.46-2.04,6.79-2.58,5.39-1.25,9.99,1.51,14.35,3.94,1.84,1.03,3.49,3.86,3.74,6.05,1.56,13.3,2.69,26.65,3.97,39.99.21,2.15.26,4.31-2.64,4.51-2.88.21-3.12-1.99-3.35-4.09-.89-8.3-1.78-16.61-3.47-24.88,0,6.59,0,13.19,0,19.78,0,20.48-.04,40.95.11,61.43.01,1.94.92,4.07,1.98,5.75,2.15,3.38,2.43,5.91-.55,8.67-2.77,2.58-5.98,4.76-9.23,6.74-5.21,3.16-10.72,5.85-15.9,9.05-3.13,1.93-6.19,4.18-8.76,6.79-6.09,6.18-6.13,15.09-.05,22.44,2.57,3.1,5.81,5.67,8.85,8.36,6.14,5.43,6.23,10.09-.46,14.92-5.02,3.63-10.73,6.3-15.83,9.83-5.67,3.92-11.07,8.23-16.41,12.6-1.4,1.15-2.56,3.02-3.06,4.77-.89,3.18-2.84,3.81-5.79,3.92-27.06.98-53.98,3.36-80.58,8.62-26.38,5.22-52,12.82-76.21,24.77-.7.34-1.42.63-2.27.56,46.42-29.14,97.55-44.86,151.36-52.92-10.59-1.59-54.31,3.72-84.9,10.68-27.96,6.36-54.89,15.67-80.22,29.34,24.68-17.33,51.82-29.67,80.07-39.77,28.34-10.13,57.45-17.23,87.17-21.89-62.91,4.68-123.95,16.38-179.68,48.11,24.11-17.65,50.53-30.94,78.17-41.99,27.6-11.03,56.03-19.22,85.18-24.93-62.98,6.67-123.61,20.91-178.14,55.62,3.89-5.39,30.69-23.14,52.08-33.28,18.56-8.81,37.36-17.3,56.64-24.34,19.35-7.06,39.41-12.15,57.11-17.49-62.46,8.79-124.33,25.79-179.51,62.4,34.38-28.81,73.85-48.51,115.86-64.48-.54-1.37-.97-2.56-1.48-3.71-13.31-29.7-19.5-60.85-17.29-93.3,3.56-52.15,24.29-96.52,62.53-132.37C188.57,24.16,222.84,7.11,262.12,1.98c71.5-9.33,130.82,14.3,176.92,69.64,24.35,29.23,37.92,63.56,42.31,101.29,4.18,35.87-1.66,70.33-16.28,103.33-.77,1.75-1.5,3.51-2.44,5.72,41.35,15.73,80.73,34.95,115.11,63.19-11.73-6.58-23.22-13.64-35.25-19.61-12.09-5.99-24.55-11.35-37.17-16.13-12.73-4.82-25.73-9.07-38.84-12.7-13-3.6-26.23-6.5-39.49-9.03-13.35-2.55-26.87-4.27-40.42-5.79,31.83,6.86,62.8,16.36,92.81,28.89,30.1,12.56,58.83,27.59,84.8,47.59-28.65-17.42-59.25-30.33-91.38-39.66-32.15-9.34-64.97-14.92-98.36-17.2,48.34,8.66,94.49,23.83,137.99,46.65,12.67,6.65,24.83,14.27,36.86,22.16-28.89-15.4-59.15-27.13-90.77-35.3-31.6-8.16-63.76-12.57-96.35-14.11,30.72,4.9,60.82,12.17,90.14,22.61,29.26,10.43,57.29,23.33,83.18,40.71-27.47-14.06-56.28-24.4-86.27-31.4-29.92-6.98-60.22-10.99-90.66-11.12,13.77,2.59,27.95,4.78,41.88,8,13.96,3.23,27.86,6.94,41.45,11.46,13.71,4.55,27.22,9.86,40.42,15.74,13.07,5.83,25.62,12.79,38.41,19.25-.19.43-.37.85-.56,1.28-.86-.33-1.74-.62-2.58-1.01-31.48-14.53-64.41-24.26-98.68-29.37-25.73-3.83-51.67-5.2-77.65-5.73-3.11-.06-4.34-.8-4.39-4.19-.09-6.71-2.87-12.67-7.26-17.56-4.38-4.88-9.4-9.18-14.14-13.74-5.51-5.31-11.4-10.28-16.42-16.02-7.26-8.28-8.55-17.94-4.32-28.18,1.78-4.31,3.82-8.51,5.6-12.82,3.03-7.36,2.97-12.49-5.5-16.57-.31-.15-.57-.4-1.38-.98ZM266.68,250.52c2.45.75,3.47.28,3.46-2.14-.06-17.57-.02-35.15-.12-52.72,0-.81-1.09-1.62-1.67-2.43-.55.85-1.58,1.7-1.59,2.56-.12,9.68-.08,19.37-.08,29.05,0,8.48,0,16.96,0,25.68ZM307.76,221.94h-.07c0,8.5-.02,17,.02,25.49,0,1.39-.66,3.61,1.89,3.22.69-.1,1.55-2.08,1.56-3.19.08-16.99.06-33.99-.06-50.98,0-1.1-1.05-2.19-1.61-3.28-.58,1.08-1.64,2.16-1.66,3.25-.14,8.5-.08,16.99-.08,25.49ZM289.56,62.79c-5.63.02-10.23,4.9-10.15,10.75.07,5.71,4.35,10.19,9.76,10.23,6,.04,10.6-4.6,10.57-10.65-.03-5.63-4.69-10.35-10.18-10.33ZM309.59,122.87c-4.54.1-7.96,3.73-7.91,8.4.05,4.41,3.63,8.24,7.76,8.3,4.37.06,8.33-4.05,8.29-8.59-.04-4.69-3.58-8.21-8.14-8.1ZM269.13,122.92c-4.61-.09-8.26,3.4-8.36,8-.1,4.54,3.53,8.51,7.88,8.63,4.2.11,8.07-3.89,8.12-8.38.04-4.62-3.23-8.16-7.64-8.24ZM289.53,133.93c.29,0,.58,0,.87,0,.52-14.76,1.03-29.52,1.55-44.37h-4.47c.69,15.12,1.37,29.75,2.04,44.38ZM349.85,72.17c-14.78-.42-29.55-.83-44.71-1.26.14,1.68.23,2.78.35,4.18,15-.64,29.65-1.26,44.31-1.88.02-.35.03-.69.05-1.04ZM230.57,74.16c14.33.56,28.67,1.12,43.3,1.69-.1-1.64-.17-2.76-.26-4.14-14.61.46-28.84.9-43.06,1.35,0,.37.01.74.02,1.11ZM288.85,14.57c-.48,13.58-1,27.16-1.34,40.74-.02.79,1.37,1.61,2.11,2.41.6-.8,1.7-1.59,1.72-2.41.09-3.33-.13-6.68-.28-10.02-.44-10.23-.91-20.46-1.36-30.69-.28-.01-.56-.02-.85-.03ZM313.2,47.85c-4.6,2.59-12.11,10.57-12.24,12.02,3.92-3.38,8.5-7.31,13.07-11.25-.28-.26-.55-.51-.83-.77ZM265.65,48.65c4.69,3.97,9.37,7.94,14.06,11.91.09-.08.17-.16.26-.24-4.32-4.37-8.64-8.74-12.96-13.11-.45.48-.91.96-1.36,1.44ZM301.2,86.21c3.96,4.42,7.92,8.85,11.87,13.27-2.11-5.12-10.34-12.81-11.87-13.27ZM266.94,99.73c4.15-4.14,8.3-8.28,12.45-12.42-.44-.44-.89-.88-1.33-1.32-4.09,4.2-8.18,8.4-12.27,12.6.39.38.77.76,1.16,1.14Z"/></svg>