<?xml version="1.0" encoding="UTF-8"?><svg id="Layer_1" xmlns="http://www.w3.org/2000/svg" xmlns:xlink="http://www.w3.org/1999/xlink" viewBox="0 0 430.45 405.64"><defs><style>.cls-1{fill:url(#linear-gradient);stroke-width:0px;}</style><linearGradient id="linear-gradient" x1="50.23" y1="98.55" x2="408.37" y2="337.34" gradientUnits="userSpaceOnUse"><stop offset="0" stop-color="#d41700"/><stop offset=".15" stop-color="#d82900"/><stop offset=".46" stop-color="#e55700"/><stop offset=".88" stop-color="#f9a200"/><stop offset="1" stop-color="#ffb900"/></linearGradient></defs><path class="cls-1" d="M37.41,186.94c10.71,5.83,21.72,6.93,33.33,2.73,6.02-2.18,12.3-3.65,18.57-5.48-9.56-7.95-19.22-16.21-32.58-17.71-8.45-.95-16.92-1.72-25.4-2.4-1.55-.12-3.29.36-4.75,1-6.95,3.02-12.78,1.64-18.24-3.57-2.32-2.21-5.6-3.42-8.34-5.03,3.68-4.54,16.53-8.41,23.06-.03,4.81,6.18,10.68,7.16,17.74,7.03,7.07-.13,14.19.32,21.22,1.11,7.71.87,14.25,4.86,20.01,9.78,8.34,7.11,18.11,9.56,28.53,10.05-13.94-31.17-35.49-55.14-66.52-70.29,2.96,1.19,5.96,2.3,8.87,3.6,2.98,1.33,5.93,2.76,8.81,4.3,19.57,10.44,35.19,25.13,47.55,43.53,5.4,8.05,11.48,15.65,17.41,23.34,4.78,6.2,11.03,9.94,18.93,11.18,11.49,1.81,20.33,8.56,28.52,16.29.68.64,1.13,1.53,2,2.05-.61-17.29-8.62-31.03-19.46-43.71,1.5,1.09,3.09,2.08,4.48,3.3,9.54,8.42,16.13,18.65,20.07,30.85,3.14,9.72,7.22,19.13,10.95,28.65.54,1.39,1.42,2.65,2.88,3.93.78-4.34,1.92-8.64,2.28-13.02,1.29-15.74-1.79-30.61-9.73-44.35-5.96-10.3-14.78-15.98-26.87-16.43-4.13-.15-8.25-.74-12.35-1.29-1.58-.21-3.1-.87-4.12-1.17,6.47-.68,13.33-1.39,20.18-2.11.05-.31.1-.63.14-.94-4.26-.77-8.52-1.49-12.77-2.31-4.91-.95-9.91-1.63-14.68-3.05-14.61-4.34-21.48-15.35-24.93-30.2,2.11,3.94,3.76,7.15,5.52,10.3,4.52,8.09,11.43,13,20.39,15.11,7.64,1.79,15.25,3.68,22.92,5.32,12.06,2.58,15.24,3.94,24.91,11.23,2.06-7.17,1.54-8.68-4.85-12.41-5.77-3.37-9.54-8.1-11.02-14.7-1.09-4.84-3.81-6.87-8.81-7.04-1.64-.06-3.28-.05-4.91,0-7.47.26-12.42-3.26-15.24-10.05-.46-1.11-1-2.19-1.38-3.32-2.16-6.46-6.09-10.79-13.53-11,.13-.32.26-.64.4-.96,3.62.95,7.24,1.91,11.06,2.92.33-6.85.59-14-1.44-20.96-1.95-6.69-7.25-9.99-15.41-10.02,8.03-2.66,14.57-.17,19.7,7.61,2.15-1.84,4.3-3.68,6.45-5.51-4.27,7.58-4.28,15.77-4.64,23.87-.25,5.52,1.97,10.11,6.24,13.43,3.25,2.52,6.88,4.56,10.44,6.65,2.53,1.49,5.26,2.65,7.84,4.05,4.27,2.32,7.41,5.37,8.26,10.6.98,6.01,6.43,8.35,11.11,11.5-.87-4.76-1.55-9.57-2.66-14.28-1.71-7.3-3.4-14.63-5.7-21.75-1.86-5.74-3.85-11.69-7.1-16.69-10.77-16.54-19.02-34.28-26.58-52.4-.57-1.37-.79-2.88-.68-4.5,2.16,3.76,4.2,7.59,6.51,11.26,8.89,14.11,17.88,28.14,26.79,42.24,2.26,3.57,4.32,7.27,6.47,10.9h0c1.11,4.02,2.22,8.05,3.33,12.07l.69-.02c.59-2.66,1.09-5.34,1.8-7.96,1.58-5.89,3.08-11.81,4.93-17.61,2.18-6.8,1.26-13.43-.82-19.92-3.32-10.36-7.01-20.6-10.56-30.89-.52-1.51-1.16-2.98-1.44-4.6,6.24,9.4,11.36,19.33,15.09,29.98,3.86,11.01,3.5,22.27,1.89,34.18,4.29-3.34,8.37-2.57,12.28-.39,4.98,2.78,9.22.28,14.54-1.86-2.36-1.28-4.01-2.75-5.86-3.08-9.92-1.78-13.58-8.49-14.46-17.58-.13-1.29-.29-2.58-.39-3.46,3.33,1.41,6.77,2.9,10.24,4.32,5.86,2.4,9.47,6.48,9.76,13.03.28,6.47.26,6.47,7.65,7.93-5.28-24.24,5.12-44.19,17.37-63.6-.61,1.53-1.21,3.07-1.83,4.6-5.11,12.51-10.14,25.08-12.22,38.52-.59,3.8-.53,7.91.27,11.66,1.91,9.02,4.43,17.92,7.46,26.92.17-.39.38-.76.51-1.16,3.24-10.42,8.86-19.46,14.93-28.5,9.35-13.91,17.56-28.6,26.25-42.96.9-1.48,1.8-2.95,3.12-5.11v2.28c.01.34.02.68.04,1.02-3.22,7.03-6.19,14.18-9.71,21.06-5.06,9.89-9.95,19.94-15.95,29.25-6.6,10.26-10.78,20.97-11.92,33.13-.73,7.87-2.53,15.64-3.86,23.49,4.44-3.18,8.73-6.57,9.61-12.64.42-2.89,2-5.01,4.47-6.5,3.17-1.91,6.3-3.89,9.53-5.71,2.94-1.66,6.03-3.06,8.97-4.72,7.08-3.99,10.39-10,9.54-18.19-.77-7.41-.71-15.02-5.01-21.87,2.19,1.84,4.38,3.68,6.56,5.52,5.29-7.28,12.64-10.29,18.98-7.72-10.74,1.24-15.39,6.16-15.95,17.22-.24,4.78-.04,9.57-.04,13.76,4.05-.82,8.07-1.64,12.09-2.45.12.37.24.74.35,1.1-7.9-.62-12.2,3.54-14.5,10.45-.51,1.54-1.24,3.02-1.95,4.5-3.33,6.98-7.6,9.48-15.4,9.09-1.74-.09-3.5-.27-5.23-.14-4.13.29-6.9,2.36-7.65,6.34-1.39,7.47-5.76,12.47-12.06,16.25-4.53,2.71-8.37,6.04-7.98,11.99,6.58-2.81,12.98-6.1,19.74-8.3,9.62-3.13,19.43-5.83,29.3-8.05,12.95-2.91,21.37-10.71,26.61-22.51.38-.85.82-1.67,1.5-3.05-2.91,16.03-11.67,26.05-24.35,29.38-7.77,2.04-15.79,3.13-23.69,4.66-1.38.27-2.76.57-4.23,1.55,6.64.94,13.29,1.88,19.93,2.83.04.23.07.46.11.69-6,.39-12.05,1.47-17.99,1.03-8.93-.66-15.9,2.06-21.75,8.78-12.41,14.23-19.2,30.61-18.88,49.54.09,5.45,1.75,10.87,2.68,16.3.4.08.8.16,1.19.24,2.32-2.67,4.76-5.26,6.94-8.04,6.16-7.84,9.89-16.86,12.67-26.36,2.77-9.5,6.43-18.61,13.54-25.8,2.77-2.8,6-5.13,9.22-7.42q-16.23,21.58-19.31,44.23c2.58-2.31,4.92-4.51,7.37-6.58,7.37-6.22,15.5-10.85,25.22-12.38,6.66-1.04,12.11-4.6,16.18-9.78,7.69-9.76,15.26-19.64,22.44-29.78,14.37-20.3,33.37-34.55,56.15-44.04.8-.33,1.64-.57,2.47-.81.17-.05.4.09,1.03.26-18.13,9.07-34.15,20.53-45.83,36.87-7.05,9.87-12.73,20.7-18.68,31.42,9.04-.24,17.84-1.02,24.5-7.1,13.4-12.23,29.47-14.11,46.44-13.33,6.41.3,12.09-.64,16.38-6.43,4.79-6.47,15.39-6.88,22.72-.66-3.04,2.06-6.57,3.9-9.41,6.49-4.55,4.16-9.2,5.16-15.01,2.96-2.83-1.07-6.15-1.53-9.16-1.28-9.12.73-18.22,1.73-27.28,3.04-6.95,1-12.93,4.47-18.45,8.7-3.45,2.64-6.85,5.34-10.26,8,9.04,2.52,17.91,5.39,26.97,7.38,6.68,1.47,13.46.57,19.84-2.28,1.46-.65,2.97-1.2,4.74-1.2-3.26,1.77-6.52,3.55-9.93,5.4,5.02,2.87,10.31,3.13,15.76,2.55-5.33,2.67-10.44,1.67-15.64-.55-1.96-.83-4.34-1.26-6.45-1.06-8.21.77-16.01-1.42-23.95-2.79-19.2-3.3-37.06-.41-53.07,11.45-4.54,3.36-9.59,6.01-14.42,8.98-3.88,2.38-7.78,4.74-11.37,7.81,2.52-.58,5.03-1.6,7.57-1.66,7.38-.19,14.84-.62,22.14.21,8.86,1.01,17.35.85,25.75-2.37,7.57-2.9,15.27-3.83,23.44-2.28,3.03.58,6.58-.97,9.77-1.96,4.87-1.5,9.68-2.32,14.68-.83-4.29.86-8.52,1.7-13.51,2.69,4.1,3.64,7.61,5.31,12.18,3.27,11.12-4.96,18.88-.54,26.03,7.46.27.3.42.69,1,1.67-4.1-2-7.52-1.14-10.88.29-6.82,2.89-12.89,1.67-18.63-2.88-3.32-2.63-6.93-4.91-10.52-7.16-1.03-.64-2.46-.64-3.9-.48,7.06,5.32,14.19,10.31,19.54,17.1-5.6-4.04-11.31-8.14-17.01-12.25-5.73-4.12-11.97-4.86-18.65-2.88-7.09,2.1-14.17,4.26-21.3,6.2-2.29.62-4.74.64-7.84,1.02,1.46.46,2.32.77,3.19,1,13.32,3.61,24.39,11.37,35.6,18.99,6.48,4.41,13.28,8.36,20.1,12.23,6.18,3.51,12.86,5.32,20.1,4.26-6.09,2.12-12.05,1.48-17.6-1.39-8.03-4.15-15.96-8.53-23.75-13.1-13.14-7.71-26.69-14.31-41.91-16.82-9.25-1.53-18.5-2.44-28.64-.61,3.44.69,6.28.79,8.7,1.85,5.65,2.47,11.28,5.1,16.59,8.25,4.86,2.88,9.22,6.6,13.91,9.79,7.86,5.37,16.43,7.35,25.81,4.93.82-.21,1.7-.19,2.57-.1-6.55,2.67-13.31,3.99-20.9,2.69,2.91,3.9,5.34,7.35,8.02,10.59.75.91,2.26,1.22,3.44,1.74,6.92,3.02,8.96,6.53,8.59,14.05-.17,3.49.18,7,.29,10.41-8.26-1.5-13.83-9.77-12.82-19.32.2-1.88-.25-4.08-1.12-5.77-3.71-7.25-9.85-11.93-16.78-16-10.83-6.35-22.13-11.12-34.6-13.13-15.3-2.46-26.88,3.3-35.48,15.71-7.27,10.49-10.77,22.36-11.59,34.96-.59,9.03-.89,18.15,1.88,26.97,4.78,15.21,15.09,24.87,30.1,29.85,5.11,1.7,9.93-.21,14.86-.74,6.61-.71,13.09-1.37,18.18,4.44.72.82,2.65.62,4.03.81,5.15.74,10.34,1.31,15.46,2.27,1.96.37,3.75,1.61,5.52,2.82-7.31-2.78-14.76-4.05-23.18-3.23,6.11,5.85,13.22,8.6,20.01,11.95-8.3-1.73-16.34-4.14-22.96-9.73-5.8-4.89-8.64-5.57-15.68-3.18,5.75,5.08,11.74,10.39,17.75,15.66,1.15,1,2.39,1.91,3.63,2.79,7.82,5.52,12.01,5.41,19.97.15,3.79-2.5,7.98-4.37,11.94-6.63,1.01-.58,1.87-1.45,2.72-2.28,2.65-2.59,5.13-5.37,7.92-7.81,6.06-5.3,12.77-6.82,20.21-2.85,1.24.66,2.57,1.16,3.82,1.98-5.65-1.14-11.09-4.5-17.06-1.22-5.31,2.92-9.17,7.24-12.36,11.71,6.35,2.88,12.61,5.71,18.87,8.55-.14.34-.28.68-.42,1.02-1.48-.52-2.98-.98-4.43-1.56-2.52-1.02-4.97-2.24-7.53-3.15-6.47-2.28-12.36-1.48-17.68,3.23-3.08,2.73-6.54,5.01-10.77,8.2,8.95.7,17.09,1.33,25.5,1.98-9.33,1.25-18.31.86-27.44-.53-9.34-1.43-17.39-5.14-25.17-10.22-7.12-4.64-15.57-5.35-23.75-6.63-3.01-.47-6.03-.96-9.01-1.6-7.73-1.67-13.84-5.67-17.84-12.65-1.3-2.26-2.73-4.44-4.37-6.5,2.2,5.45,4.36,10.96,9.04,14.9,3.34,2.81,6.99,5.26,10.24,8.16,1.98,1.77,3.41,4.13,5.22,6.12.9.99,1.96,2.03,3.16,2.53,4.11,1.74,8.35,3.17,12.47,4.88,5.71,2.37,10.68,5.7,13.77,11.38-7.29-8.39-17.77-10.4-28.57-14.39,1.73,4.05,2.99,7.43,4.6,10.63,2.21,4.4,2.27,4.41-1.73,7.24-1.22.86-2.22,2.03-3.33,3.06-.22-.17-.44-.34-.67-.51,1.53-1.87,3.05-3.73,4.68-5.72-1.94-3.92-4.05-8.17-6.3-12.72-1.26,2.3-3.4,4.66-3.77,7.28-.36,2.57,1.07,5.39,1.92,8.96-1.88-2.14-3.31-3.75-4.67-5.31-4.76,2.46-9.52,4.91-14.27,7.37-.13-.24-.26-.48-.38-.72,3.38-2.31,6.73-4.66,10.15-6.91,5.02-3.31,5.54-9.15,7.84-13.97.28-.58-.74-2.22-1.56-2.82-4.05-2.95-8.05-6.05-12.41-8.48-8.4-4.7-14.42-11.06-16.87-20.61-.74-2.89-2.41-5.54-4.02-8.14,1.04,3.62,2.85,7.21,2.95,10.86.27,9.54,3.58,17.6,9.74,24.71,2.06,2.38,2.57,5.27,1.49,8.3-1.47,4.14-3.03,8.25-4.46,12.4-.2.6-.12,1.61.27,2.04,1.98,2.24,3.98,4.49,6.22,6.46,1.41,1.24,3.26,2,4.77,3.21-5.55-1.64-11.08-3.32-13.75-9.11-6.66,3.55-13.03,6.94-19.4,10.33-.12-.11-.25-.22-.37-.33,2.54-2.07,5.01-4.23,7.63-6.19,3.31-2.49,6.88-4.65,10.09-7.25,4.09-3.32,4.55-13.42,1.01-17.3-1.91-2.09-3.85-4.16-6.12-6.61-1.14,5.73-5.67,8.29-9.73,11.38-2.77,2.1-5.17,4.68-7.83,6.94-1.71,1.45-1.75,3.07-1.05,4.98.88,2.4,1.67,4.84,2.5,7.26-.3.1-.59.2-.89.31-1.24-3.43-2.49-6.87-3.78-10.46-.42.03-1.15.09-1.97.15.08-.26.08-.44.17-.55,5.1-6.57,10.38-13.01,15.15-19.81,1-1.43.34-4.26-.05-6.36-.37-2-1.29-3.93-2.14-5.81-2.31-5.11-4.38-10.24-3.37-16.06.21-1.23.03-2.52-.27-3.82.55,8.38-4.72,15.08-6.57,22.75-.45,1.86-2.5,3.51-4.12,4.88-5.41,4.57-5.61,8.06-.44,12.98.76.72,1.63,1.31,2.17,2.26-4.52-1.91-8.17-4.88-10.87-8.88-1.34-1.99-1.39-4.17,1.36-6.07-5.13.15-8.63,2.45-11.78,5.25-.86.76-1.26,2.26-1.48,3.49-1.1,6.15-3.26,11.75-7.94,16.19,1.5,2.53,2.96,4.99,4.43,7.45-.17.11-.35.21-.52.32-1.96-2.26-3.92-4.53-5.83-6.75-5.12,2.99-5.17,3.1-3.44,6.78-3.98-1.98-4.17-4.14-.18-6.99,5.07-3.62,7.49-8.63,8.59-14.5.2-1.04.17-2.13.23-3.06-4.6.43-8.96.89-13.33,1.21-1.62.12-3.27-.13-4.9-.21-4.15-.2-7.1,1.58-9.02,5.26-1.2,2.3-2.58,4.51-4.09,7.12.79-9.62,6.37-14.86,15.33-15.43,4.42-.28,8.85-1.12,13.16-2.18,1.96-.48,3.72-2.02,5.44-3.26,2.63-1.89,4.94-4.33,7.75-5.84,7.72-4.13,10.03-6.42,13.65-15.03-.18.04-.4.03-.44.11-6.27,12.21-18.34,15.35-30,18.95-6.03,1.86-12.32,2.84-18.34,4.73-4.12,1.29-8.32,2.93-11.86,5.34-13.67,9.31-29,10.56-44.79,10-1.72-.06-3.42-.35-6.03-.63,8.9-.64,16.91-1.21,25.69-1.85-4.53-3.45-8.24-6.12-11.76-9.02-4.54-3.74-9.57-4.59-15.03-2.86-3,.95-5.88,2.27-8.82,3.42-1.4.55-2.8,1.08-4.2,1.62-.17-.38-.33-.75-.5-1.13,6.05-2.76,12.1-5.52,18.3-8.36-3.25-4.45-7.18-8.8-12.61-11.73-5.95-3.21-11.38-.22-16.95,1.31,10.23-6.26,17.17-5.84,25.6,2.27,4.8,4.61,9.41,9.18,15.79,11.66,2.58,1,4.78,3.01,7.14,4.59,5.59,3.75,11.22,4.01,16.71-.05,3.41-2.52,6.68-5.26,9.91-8.02,4.43-3.79,8.77-7.69,12.95-11.36-5.49-2.77-10.03-1.93-14.97,2.65-6.53,6.06-14.88,8.14-23.94,10.53,7.3-4.07,13.86-7.73,20.42-11.39-.18-.4-.36-.8-.53-1.21-8.05-.55-15.89.21-23.5,4.37,2.95-3.16,8.7-5.31,15.23-5.85,1.52-.13,3.05-.23,4.58-.24,3.2-.01,5.91-.58,8.6-2.93,2-1.75,5.35-2.35,8.19-2.62,3.21-.31,6.64-.18,9.75.63,12.36,3.25,22.11-1.88,30.69-9.68,10.83-9.84,15.8-22.58,15.85-37.11.05-14.68-3.56-28.55-10.99-41.24-5.85-9.98-13.83-17.53-25.82-19.29-8.61-1.27-16.92.74-25.08,3.37-10.48,3.37-19.83,9-28.99,14.9-4.78,3.07-8.18,7.58-10.44,12.76-.71,1.64-.41,3.82-.25,5.73.73,8.67-4.64,15.89-12.63,17.63,0-3.35.13-6.84-.03-10.31-.37-7.91,1.45-10.74,8.5-14.05,2.13-1,3.99-2.8,5.64-4.55,2.16-2.28,3.99-4.87,6.39-7.85-7.64,1.55-14.43-.12-21.06-2.9,1.82.24,3.67.34,5.45.75,8.03,1.85,15.14-.64,21.78-4.78,4.62-2.88,9.05-6.1,13.42-9.36,7.3-5.44,15.16-9.43,24.36-10.39.63-.07,1.25-.3,2.07-.5-5.75-1.6-15.82-1.38-23.92-.29-18.3,2.45-34.15,10.73-49.71,19.93-6.47,3.83-13.11,7.4-19.84,10.74-5.49,2.73-11.34,3.4-17.33,1.41,14.9,1.81,25.5-7.5,36.97-14.36,7.2-4.31,13.87-9.52,21.16-13.65,6-3.4,12.57-5.8,18.73-8.57-1.19-.17-2.93-.23-4.57-.68-7.55-2.06-15.13-4.07-22.6-6.41-8.01-2.51-15.08-.73-21.53,4.14-5.64,4.26-11.13,8.72-16.55,12.99,6.01-7.38,13.17-13.73,21.57-19.27-1.18.09-2.58-.19-3.49.35-3.35,2-6.88,3.91-9.73,6.51-5.76,5.26-11.95,6.64-19.31,4.05-3.28-1.15-6.81-1.62-10.08-2.37,2.29-5.35,12.41-10.62,19.07-9.23,1.7.35,3.43.77,4.99,1.5,4.65,2.15,8.84,1.59,13.49-2.44-4.72-1.11-8.87-2.09-12.8-3.01,5.14-1.81,10.31-.47,15.39,1.26,4.12,1.4,8.14,1.72,12.48.84,5.91-1.19,11.82-.1,17.35,2.05,9.86,3.85,19.89,4.62,30.21,2.76,9.31-1.68,18.45-.89,27.78,1.48-1.3-.94-2.57-1.9-3.89-2.8-1.35-.92-2.74-1.79-4.12-2.66-7.26-4.62-14.49-9.27-21.78-13.85-11.84-7.43-24.93-10.49-38.71-9.72-7.89.44-15.69,2.49-23.57,3.47-4.08.51-8.26.18-12.39.38-1.86.09-3.88.19-5.54.93-5.62,2.5-11.15,3.6-16.81.18,5.85,1.4,11.5,1.13,16.9-1.78-3.17-1.85-6.3-3.64-9.39-5.51-.45-.27-.67-.91-1-1.38l-.02.04ZM214.75,185.06c4.83-8.61,10.04-17.51,14.87-26.61,6.17-11.63,7.99-24.09,6.02-37.09-.5-3.31-.89-6.75-2.1-9.82-2.39-6.04-6.8-7.67-13.12-6.53-3.38.61-7-.19-10.52-.23-2.43-.03-5.06-.42-7.25.35-4.17,1.46-6.16,5.25-6.93,9.29-2.4,12.61-2.78,25.19,2.84,37.17,5.25,11.2,10.77,22.27,16.2,33.47ZM102.62,176.46c-.6-.95-1.1-1.98-1.81-2.84-3.59-4.37-7.19-8.72-10.86-13.02-2.65-3.1-6.04-5.38-10.12-5.35-5.78.05-11.56.82-18.31,1.36,2.65,2.83,4.51,5.06,6.63,7.01,5.55,5.08,11.77,8.2,19.63,6.22,5.56-1.4,9.79.69,12.94,5.3.4.58.91,1.09,1.37,1.64.17-.11.34-.21.51-.32ZM329.62,175.46c3.84-7.25,9.95-6.62,16.36-5.56,2.18.36,4.68.35,6.74-.35,6.66-2.26,11.89-6.54,15.87-12.28-2.86-.41-5.62-.74-8.36-1.2-5.46-.92-11.3-1.84-15.68,2.01-5.63,4.94-10.43,10.84-15.58,16.33.22.35.44.7.67,1.05ZM336.62,109.13c.28-.87.95-1.92,1.72-2.28,7.48-3.44,13.68-10.51,23.26-8.49-1.56-.89-3.11-1.78-4.6-2.64.65-2.16,1.2-3.98,1.75-5.8q-4.38,5.81-11.33,8.98c-3.76,1.71-7.65,3.2-11.24,5.23-1.59.9-3.1,2.69-3.73,4.41-1.42,3.86-2.24,7.94-3.39,11.91-.32,1.11-.78,2.31-1.54,3.13-2.37,2.55-4.91,4.93-7.78,7.77,14.87,2.01,17.37,1.48,22.99-4.88-3.42-1.4-6.66-2.73-10.04-4.11,1.27-4.32,2.53-8.8,3.93-13.23ZM105.6,132.28c1.5-.46,3.14-.44,4.79-.64-1.77-2.23-3.21-5.36-5.65-6.77-3.35-1.94-4.11-4.69-4.79-7.87-.39-1.81-1.15-3.57-1.3-5.38-.43-5-3.44-7.34-7.73-9.4-6.73-3.25-15.19-4.26-18.66-12.62.62,2.12,1.24,4.24,1.81,6.22-2.01.95-3.81,1.79-5.6,2.63.01.3.02.6.03.91,6.03-3.44,10.54.22,15.29,2.68,2.32,1.2,4.68,2.36,6.83,3.82,1.2.81,2.45,2.03,2.91,3.33,1.56,4.37,2.77,8.86,4.1,13.24-3.34,1.33-6.54,2.6-10.1,4.01,5.29,5.85,10.98,8.03,18.07,5.86ZM63.5,189.36c2.98-.95,5.9-2.11,7.93-2.85-1.46-.97-3.88-1.95-5.39-3.71-5.1-5.95-11.28-7.69-18.79-6.09-3.12.66-6.37.7-9.43,1.01,4.88,10.21,15.15,15,25.68,11.64ZM378.67,189.75c6.74-1.97,11.25-6.52,14.44-12.02-3.51-.36-6.97-.49-10.33-1.12-6.82-1.29-12.72-.26-17.42,5.37-1.48,1.77-3.55,3.04-5.19,4.41,5.71,2.26,11.67,5.36,18.49,3.36ZM162.73,46.55c-3.55,5.44-4.95,11.41-2.5,17.73,1.66,4.28,3.62,8.45,4.93,11.48.67-1.73,1.22-4.85,2.91-7.13,4.53-6.09,5.21-12.37,2.84-19.44-1.08-3.22-1.21-6.75-1.81-10.38-2.01,2.41-4.49,4.87-6.36,7.74ZM267.88,69.98c7.83-11.87,2.25-23.47-5.93-30.36-.8,3.62-1.48,7.6-2.6,11.46-1.57,5.41-1.54,10.48,1.85,15.24,2.32,3.25,4.65,6.52,3.98,10.84.88-2.41,1.33-5.1,2.7-7.18ZM149.1,76.1c-2.25-2.85-4.4-5.8-6.77-8.54-3.98-4.6-8.98-6.09-15.01-4.93-4.22.81-8.54,1.03-12.55,1.48,5.57,9.77,12.72,13.2,23.05,10.29,4.26-1.2,8.35-2.53,12.24,1.28-.32.14-.63.28-.95.43ZM357.33,149.35c12.14,5.19,21.8-.94,25.82-11.94-4.23,0-8.55.04-12.86,0-4.84-.05-8.9,1.65-12.4,4.99-2.16,2.05-4.57,3.82-6.54,5.45,1.63.4,3.94.65,5.98,1.52ZM281.02,75.15q5.22-2.73,11.58-1.14c.95.24,1.89.49,2.85.69,9.2,1.96,17.51-2.65,21-11.84-4.66,2.17-9.1.68-13.53-.24-4.83-1-9.28-.07-12.72,3.32-3.08,3.03-5.54,6.69-8.27,10.07-.3-.29-.61-.58-.91-.87ZM72.16,142.29c-3.64-3.13-7.77-4.71-12.56-4.67-3.99.04-7.98,0-11.98,0,3.29,10.71,12.54,15.64,23.16,12.51,3.25-.96,6.62-1.53,8.82-2.02-1.9-1.48-4.77-3.53-7.43-5.82ZM19.24,115.65c4.41,3.91,9.09,4.64,14.53,2.86,2.71-.89,5.55-1.37,7.69-1.88-1.4-1.2-3.61-2.54-5.07-4.45-6.78-8.9-18.75-9.99-26.42-2.83,3.17,2.11,6.52,3.86,9.27,6.3ZM397.87,118.75c4.83,1.65,8.97.85,12.72-2.53,3.12-2.81,6.22-5.7,10.96-6.45-3.49-1.93-6.98-3.67-10.66-4.53-6.28-1.46-11.51.55-15.61,5.72-1.83,2.31-4.18,4.2-5.82,5.81,2.21.5,5.42.94,8.42,1.97ZM116.62,266.63c-1.27-4.92-.6-8.96,2.25-12.91.4-.56.71-1.19,1.06-1.78-1.39.72-2.18,1.86-3.12,2.85-1.47,1.54-2.85,3.3-4.61,4.42-7.33,4.67-9.25,9.94-6.76,18.42.9,3.06,1.16,6.3,1.75,9.65,6.93-2.9,11.65-12.08,9.43-20.66ZM61.44,238.49c2.92.53,6.13.92,9.24,1.7,6.34,1.58,11.8.31,16.52-4.29,1.85-1.8,3.99-3.32,5.73-4.76-12.36-5.9-23.52-4.82-31.5,7.35ZM120.24,48.58c3.13,3.47,6.74,5.6,11.47,5.04,4.18-.5,8.44-1.83,11.33,2.93-2.62-4.18-5.12-8.08-7.75-11.89-2.35-3.4-5.71-5.31-9.74-6.06-5.02-.93-9.73.18-13.6,1.91,2.82,2.72,5.73,5.23,8.28,8.06ZM313.63,269.01c-1.3,7.96,3.23,15.43,9.57,18.55.63-3.53,1.09-7.34,2.03-11.03,1.36-5.34.94-10.23-3.11-14.22-3.58-3.53-7.43-6.78-11.16-10.15,4.67,4.89,3.68,10.67,2.67,16.85ZM70.58,49.61c-2.03,9.07.39,15.97,6.91,20.18,2.95,1.91,5.76,4.04,8.72,6.13-3.07-3.03-1.82-6.83-1.48-10.56.48-5.17-1.3-9.36-5.37-12.67-2.6-2.11-4.98-4.49-7.62-6.9-.37,1.2-.86,2.49-1.16,3.81ZM343.98,235.81c3.27,3.1,6.9,5.5,11.57,5.02,4.54-.46,9.02-1.41,13.58-2.14-5.38-7.8-13.7-14.35-26.4-9.2-1.71.69-3.68.75-4.96,1,1.81,1.54,4.11,3.33,6.21,5.33ZM295.65,44.49c-2.5,3.71-4.79,7.56-6.36,10.06,1.45-.3,4.4-1.78,6.95-1.28,6.67,1.33,11.31-.97,15.34-6.05,1.92-2.42,4.59-4.23,6.83-6.24-5.94-4.22-17.61-4.13-22.76,3.51ZM352.5,70.21c7.3-3.84,10.94-14.04,6.21-23.87-2.77,2.47-5.57,5.02-8.45,7.5-3.31,2.85-4.72,6.49-4.44,10.74.27,4.06,1.51,8.18-1.72,11.64,2.89-2.1,5.44-4.45,8.39-6.01ZM63.24,279.69c7.82-.58,13.99-4.59,15.42-10.56,1.1-4.6,1.41-9.45,7.17-11.05-3.8.68-7.27,1.53-10.78,2.07-6.3.97-10.25,4.35-11.8,10.61-.72,2.92-1.76,5.76-2.74,8.94.78,0,1.76.06,2.73,0ZM351.97,267.94c1.72,8,10.84,13.3,18.25,11.46-1-3.16-2.07-6.32-2.99-9.52-1.39-4.84-4.45-7.91-9.35-9.05-4.3-1-8.62-1.89-12.93-2.83,4.75,1.53,6.04,5.4,7.02,9.94ZM394.61,142.83c-5.63.85-9.85,3.39-11.63,9.05-.99,3.16-1.97,6.25-6.21,7.78,4.56-.73,8.18-1.33,11.81-1.88,9.23-1.4,15.63-8.52,15.66-16.95-3.14.66-6.36,1.51-9.63,2ZM47.67,152.54c-1.35-5.19-4.77-8.42-10.14-9.49-3.65-.73-7.28-1.55-10.85-2.32.62,9.08,6.22,15.63,14.83,17.04,3.84.63,7.69,1.23,12.47,2-4.13-1.36-5.48-3.98-6.32-7.23ZM381.54,130.54c2.06,1.53,4.35,2.94,6.75,3.78,6.38,2.23,11.82-.73,16.97-3.46-2.91-1.94-5.88-3.9-8.84-5.88-5.2-3.48-10.59-4.1-16.34-1.35-2.59,1.24-5.32,2.19-7.99,3.27,4.1-1.3,6.58,1.51,9.45,3.64ZM51.71,128.54c1.28-1.21,3.56-1.38,5.21-1.97-1.78-.82-3.86-1.71-5.88-2.73-5.92-2.97-11.55-2.55-16.97,1.25-2.75,1.93-5.56,3.79-8.25,5.62,9.07,6.31,17.7,5.6,25.89-2.18ZM91.06,42.85c2.07,3.49,4.93,5.8,8.87,6.59,3.62.73,7.26,1.25,9.3,4.98-.68-2.88-1.73-5.49-2.08-8.19-.81-6.28-4.4-10.92-10.58-12.07-3.75-.69-7.67-.47-11.79-.67,2.49,3.68,4.54,6.43,6.29,9.37ZM329.95,49.86c4.24-1.1,7.49-3.23,9.73-7.06,1.72-2.94,3.72-5.72,5.7-8.72-1.61-.19-3.49-.58-5.39-.61-10.04-.16-15.08,4.41-16.17,14.31-.21,1.88-1.02,3.68-1.38,4.93,2.2-.85,4.78-2.14,7.51-2.84ZM79.45,84.26c1.45,6.86,5.39,11.05,12.49,12.39,2.75.52,5.3,2.08,7.19,2.86-.38-1.77-1.05-4.65-1.59-7.55-.95-5.03-3.77-8.47-8.59-10.15-3.37-1.17-6.8-2.14-10.7-3.36.46,2.24.82,4.02,1.2,5.8ZM247.6,205.59c3.18-5.03,5.53-10.6,7.88-15.22-2.48,1.09-5.16,2.68-8.06,3.44-6.61,1.74-10.81,5.73-12.72,12.22-.79,2.68-1.53,5.37-2.44,8.55,6.07-2.13,12.02-3.74,15.34-9ZM336.58,97.05c10.89-1.44,14.55-6.23,15.88-18.21-3.41,1.03-6.87,1.96-10.25,3.12-4.76,1.64-7.91,4.79-8.94,9.91-.58,2.9-1.4,5.74-1.9,7.79,1.19-.62,3.1-2.33,5.21-2.61ZM382.23,80.68c-4.18-.51-7.9.22-10.7,3.5-2.51,2.95-4.76,6.11-7.12,9.18,2.48-2.34,5.28-1.79,8.23-1.25,9.79,1.79,17.51-2.5,20.32-10.65-3.49-.24-7.13-.34-10.73-.78ZM218.13,45.6c.22,4.3,1.66,8.2,5.15,10.91,3.8,2.95,7.76,5.67,8.29,10.15.16-2.47.18-5.59.61-8.65.84-6.04-.98-10.94-5.69-14.81-2.68-2.2-5.32-4.46-8.38-7.02,0,3.38-.13,6.42.03,9.43ZM205.18,57.93c7.61-5.5,7.75-13.39,7.03-21.73-3.33,2.8-6.48,5.4-9.56,8.07-3.16,2.74-4.62,6.33-4.41,10.45.22,4.34.76,8.66,1.09,12.26.3-3.4,2.45-6.58,5.86-9.04ZM55.91,92.32c3.45-.37,7.02-2.43,10.05,1.35-2.02-2.98-3.97-5.59-6-8.13-3.28-4.1-7.45-5.69-12.72-4.82-3.16.52-6.41.46-9.68.67,3.3,8.05,9.57,11.88,18.35,10.93ZM237.77,55.08c1.26-4.88,3.97-10.25,3.59-15.38-.38-5.29-3.77-10.36-6.08-16.1-7.86,12.01-4.65,22.12,2.48,31.48ZM351.98,108.57c-4.69,3.36-5.47,7.79-3.99,13.02.93,3.25,2.45,6.56.13,8.73,1.23-1.07,3.02-3.06,5.2-4.44,7.42-4.7,8.96-14.54,4.81-22.26-1.92,1.56-3.95,3.38-6.15,4.96ZM392.36,207.4c-2.08,2.08-4.77,3.55-7.18,5.3,1.42-.39,3.5-.24,5.14.69,6.18,3.51,11.34,2.01,16.44-2.35,2.31-1.98,5.3-3.17,8-4.73-6.85-6.01-15.67-5.6-22.39,1.1ZM251.36,63.84c-5.72,10.53-3.77,20,4.53,28.03,6.62-12.35,6.23-14.93-4.53-28.03ZM24.54,211.39c4.65,3.72,9.31,5.34,15.01,2.36,2.03-1.06,4.47-1.36,6.88-2.05-3.86.45-6.02-2.08-8.29-4.47-6.22-6.55-15.64-6.81-22.02-1.02,2.83,1.71,5.87,3.14,8.42,5.18ZM193.25,54.06c7.37-8.71,9.03-18.76,2.75-29.21-8.96,9.17-9.08,19.33-2.75,29.21ZM174.89,91.33c9.46-7.79,8.94-17.53,4.1-27.52-7.34,8.3-12.01,17.32-4.1,27.52ZM246.9,105.63c.56-2.23.98-4.8,1.85-7.21,1.86-5.12,1.38-9.8-1.77-14.28-1.68-2.4-3.15-4.95-4.78-7.52-6.2,11.44-5.25,17.11,4.7,29.02ZM74.17,123.13c2.67,2.57,5.54,4.93,8.31,7.4-1.63-3.41-1.74-3.44-.27-8.63,1.6-5.68.44-10.24-4.54-13.76-1.91-1.35-3.47-3.21-5.3-4.93-3.65,7.01-2.99,15.33,1.8,19.93ZM183.31,107.97c1.51-2.44,2.77-5.07,4.59-7.26,2.45-2.95,4.69-6.07,4.2-9.91-.63-4.96-2.04-9.83-3.26-15.42-2.13,3.43-3.52,5.97-5.19,8.3-3.04,4.23-3.91,8.74-1.85,13.53,1.51,3.51,2.09,7.03,1.5,10.77,0,0,0,0,0,0ZM35.78,240.39c1.32-1.09,2.73-2.06,4.36-3.28-4.77-1.3-9.62-3.92-14.19-3.51-4.61.42-8.94,3.85-13.63,6.07,7.7,6.75,15.94,6.92,23.46.71ZM404.03,244.94c5.31.11,9.73-1.78,14.02-5.11-4.8-2.36-8.94-5.77-13.36-6.18-4.51-.42-9.3,2.09-14.48,3.45,4.97,3.12,8.1,7.72,13.82,7.84ZM328.89,200.85c-3.62-3.07-7.69-4.14-12.19-2.66-3.33,1.1-6.51,2.62-9.08,3.67,1.65.75,4.05,1.22,5.55,2.64,6.35,5.98,12.76,6.72,22.25,1.31-2.25-1.69-4.49-3.22-6.54-4.96ZM319.6,80.52c7.01,3.04,15.8-.07,19.3-6.89-2.57-.72-5.27-1.22-7.77-2.21-5.42-2.16-9.92-1-14.12,2.88-1.85,1.71-4.2,2.88-5.32,3.63,2.01.64,5.08,1.35,7.92,2.58ZM95.45,205.99c10.6,5.91,16.2,3.6,22.04-1.63,1.53-1.38,3.93-1.79,5.45-2.44-13.48-6.63-16.71-6.21-27.48,4.08ZM141.88,37.39c.17-7.79-5.1-15.08-12.56-17.55,0,3.26-.07,6.6.02,9.93.1,4.02,1.51,7.41,5.08,9.63,2.69,1.67,5.38,3.35,7.46,4.64,0-1.71-.04-4.18,0-6.65ZM294.94,40.37c3.93-2.31,6.06-5.52,6.19-10.01.1-3.52.02-7.05.02-10.48-8.36,3.18-13.1,10.75-12.34,19.67.14,1.7-.61,3.48-.96,5.22.01.34.02.68.04,1.02,2.34-1.82,4.52-3.92,7.05-5.41ZM65.41,111.5c-.93-4.08-3.36-6.79-7.17-8.21-3.28-1.22-6.66-2.16-10.03-3.23-.36,8.6,3.84,13.95,11.9,15.93,2.8.69,5.4,2.19,7.41,3.04-.5-1.77-1.44-4.62-2.1-7.53ZM363.32,118.72c2.32-.79,5.2-1.85,8.12-2.75,7.6-2.36,11.58-8.14,10.89-15.93-20.55,6.08-15.13,8.41-19.02,18.69ZM125.74,254.99c-2.5,4.21-2.15,10.92.33,14.28,2.17-1.93,4.54-3.74,6.55-5.89,1.94-2.08,3.73-4.38,5.15-6.83,1.21-2.08,1.8-4.52,2.64-6.74-7.18-.81-12.13.89-14.68,5.18ZM305.21,256.36c-3.1-7.5-10.19-6.46-15.6-7.05.85,1.79,2.14,3.87,2.81,6.12.96,3.23,2.3,5.96,5.11,8.07,2.33,1.75,4.24,4.07,6.39,6.2,2.25-3.8,3.29-8.51,1.29-13.35ZM119.1,78.12s-.17-.1-.26-.14c-1.18-.54-2.69-.77-3.49-1.65-5.85-6.45-12.6-6.87-20.1-3.43-1,.46-2.19.48-3.37.72,6.14,8.49,12.26,10.02,21.15,5.71,1.75-.85,3.86-.94,6.22-1.47-.23.52-.15.4-.13.26ZM163.24,202.74c3.43.04,6.66.31,8.94,3.41-5.46-9.98-2.96-15.94-23.29-15.71,2.88,6.72,6.36,12.22,14.35,12.3ZM64.65,207.31c7.15,2.32,13.63,2.09,18.93-4.27,1.06-1.27,3.14-1.69,4.6-2.42q-14.11-5.62-25.34,6.13c.63.19,1.23.37,1.81.56ZM347.68,203.75c6.2,5.91,12.07,6.8,19.44,2.91-6.43-10.02-14.95-12.13-24.26-5.91,1.14.69,3.28,1.53,4.82,3ZM152.7,149.19c4.39.42,8.96-.98,13.85-1.63-1.32-1.51-2.26-2.41-3-3.44-3.21-4.51-7.47-6-12.86-4.89-2.51.52-5.11.65-8.07,1,2.62,3.83,5.06,8.48,10.08,8.96ZM224.49,18.06c6.56-4.07,8.95-11.12,6.19-17.95-8.98,4.76-14.71,11.45-10.99,21.85,1.2-.99,2.86-2.69,4.81-3.9ZM265.24,146.65c9.38,5,17.55,4.27,22.26-6.47-8.62-1.47-17.63-3.35-22.26,6.47ZM204.15,16.71c2.32,1.76,4.71,3.45,6.5,4.77,4.46-10.59-2.24-16.48-10.58-21.48-2.21,6.87-.76,13.05,4.08,16.71ZM136.07,165.19c1.35-.92,3.35-.89,4.21-1.09-7.04-7.7-15.73-8.01-24.81-2.3,5.97,5.75,13.02,8.56,20.59,3.4ZM261.88,28.34c6.53-4.13,8.82-10.35,6.48-17.7-8.56,4.68-15.13,10.52-10.73,21.26,1.19-1.02,2.58-2.51,4.25-3.56ZM162.09,10.53c-2.33,7.46-.15,13.45,6.28,17.55,1.67,1.07,3.11,2.52,4.41,3.59,4.39-10.83-2.33-16.46-10.69-21.14ZM291.22,163.71c8.17,5.02,16.56,6.44,24.09-2.31q-13.8-4.28-24.09,2.31ZM97.48,141.19c3.04,7.81,8.91,10.9,16.86,9.54,1.99-.34,4.12.17,5.55.26-3.89-9.74-12.51-11.62-22.4-9.8ZM267.69,201.75c6.32.02,12.6-4.47,13.78-12.11-4.67.92-9.83.76-13.51,3.01-3.7,2.26-5.93,6.92-8.46,10.09,2.71-.35,5.45-1,8.19-.99ZM130.95,178.57c6.64,5.04,11.82,5.37,19.03,1.32,1.51-.85,3.31-1.18,4.46-1.57-7.59-9.66-15.63-5.82-23.49.26ZM275.54,33.8c-5.11,6.55-5.14,9.89-.43,16.69,1.07,1.54,1.56,3.47,2.15,4.84,2.56-7.88,7.2-16.14,1.14-25.25-1.02,1.33-1.94,2.53-2.87,3.73ZM151.91,30.27c-3.46,6.26-3.65,12.56-.35,18.99.87,1.69,1.28,3.63,1.75,5,7.52-8.25,7.53-16.45-1.41-23.99ZM316.76,150.61c7.63,1.5,14.7-2.56,16.63-9.33-4.22,0-8.96-1.11-12.76.31-3.81,1.42-6.69,5.36-10.22,8.41,2.68.24,4.55.25,6.36.6ZM262.9,123.38c9.21-6.6,10.15-11.24,4.25-22.38-6.67,6.62-8.18,14.12-4.25,22.38ZM168.69,124.29c.16-1.72.13-3.74.57-5.66.77-3.36,1.3-6.64-.55-9.8-1.52-2.6-3.15-5.15-4.9-7.99-6.24,12.37-5.35,16.12,4.88,23.45ZM293.26,174.24c-3.66-2.26-7.33-2.74-11.01-.19-2.05,1.42-4,3-5.33,4.01,1.85.79,4.01,1.53,6.01,2.59,5.9,3.14,12.34,2.23,17.17-2.46-2.35-1.36-4.63-2.59-6.83-3.95ZM183.17,36.23c.82-1.44,1.69-3.63,3.13-5.33,4.9-5.79,4.86-11.76,1.14-18.27-12.65,13.83-6.57,13.69-4.27,23.61ZM37.4,186.95c-1.79-.72-3.7-1.25-5.32-2.24-2.74-1.69-5.54-2.62-8.66-1.54-4.46,1.54-7.24,5.08-10.56,8.55,2.43.43,4.27.65,6.05,1.11,3.49.91,6.86.57,9.59-1.71,2.67-2.23,5.55-3.68,8.94-4.22,0,0-.02.04-.03.06ZM56.73,68.99c1.37,2.27,2.84,4.79,4.39,7.25,1.94,3.08,4.84,4.45,8.42,4.83,2.05.22,4.03.99,5.54,1.38-.96-10.31-7.02-15.4-18.34-13.47ZM395.19,186.86c1.68,1.05,3.75,2.03,5.43,3.47,2.66,2.28,5.59,3.38,9.02,2.94,2.55-.33,5.08-.89,7.7-1.36-7.09-10.02-12.12-11.05-22.15-5.05ZM250.23,23.98c-.76-4.13-4.34-7.74-6.84-11.83-3.98,6.36-3.67,12.32.36,17.82,1.51,2.06,2.75,4.32,4.22,6.67.84-4.09,3-8.64,2.26-12.66ZM356.08,81.95c1.19-.23,2.85-.78,4.51-.8,3.23-.05,6.16-.85,8.1-3.46,2.05-2.76,3.69-5.83,5.46-8.67-11.46-2-16.93,3.43-18.07,12.93ZM261.51,179.06c3.77-.97,6.82-7.05,6.24-9.89-9.46-2.03-14.8,3.12-18.38,10.77,3.87-.22,8.18.14,12.14-.88ZM104.7,95.4c2.35,10.08,10.14,11.25,18.21,10.65-1.5-10.44-9.44-11.37-18.21-10.65ZM161.51,170.02c2.03,9.95,8.92,12.6,17.67,11.52-1.64-9.47-8.6-12.01-17.67-11.52ZM2.28,179.82c8.04,4.91,14.58.64,20.87-4.09q-10.15-5.53-20.87,4.09ZM407.55,175.96c5.73,5.27,12.31,8.4,20.25,4.12-5.87-6.77-12-12.62-20.25-4.12ZM326.14,95.17c-14.91.77-14.21.92-18.24,10.75,11.99-.11,16.01-2.48,18.24-10.75ZM121.61,134.45c7.39-7.46,4.7-14.57-1.62-21.05-4.93,5.91-4.47,12.6,1.62,21.05ZM304.04,124.05c-.15,3.68,2.69,7.49,4.31,11.44,5.05-7.47,6.86-14.69.96-22.62-1.98,3.92-5.12,7.49-5.26,11.18ZM153.04,107.41c1.29-3.78-.14-7.23-2.35-11.06-2.6,3.87-5.58,6.9-6.81,10.52-1.48,4.36,2.25,7.5,4.55,10.72,1.61-3.47,3.43-6.72,4.62-10.18ZM280.3,112.68c1.09,1.54,1.89,3.28,3.19,5.59,1.39-3.37,3.42-6.43,3.79-9.67.61-5.35-5.1-7.37-7.41-11.91-3.34,5.78-3.14,10.93.42,15.99ZM183.2,197.85c1.95,1.31,3.56,3.12,5.15,4.55,4.05-12.33-3.23-16.48-12.67-15.47.99,4.87,3.45,8.19,7.52,10.92ZM213.93,75.94c.64-1.7,1.12-3.82,2.18-5.59,3.66-6.14.01-10.68-3.02-15.48-6.21,8.54-5.89,13.62.84,21.07ZM369.77,240.6c.43,1.85,1.21,3.87,1.3,5.92.17,4.29,2.26,6.93,6.21,8.2,1.85.59,3.77.96,5.54,1.4-.67-8.82-4.01-15.25-13.05-15.51ZM89.49,59.19c3.91,4.91,8.59,7.2,14.9,4.66,1.14-.46,2.61-.06,3.32-.06-4.12-8.05-10.98-9.86-19.75-6.46.58.7,1.07,1.27,1.53,1.86ZM47.21,255.91c9.61-1.37,10.8-2.59,12.09-11.89.16-1.17.98-2.26,1.39-3.16-8.79.98-10.09,2.39-13.48,15.05ZM323.36,63.59c1.15.13,2.54.09,3.81.46,6.83,2,11.99-.28,15.23-6.86-9.07-2.96-12.35-1.82-19.04,6.39ZM126.61,101.09c3.17-12.69-3.37-14.94-12.35-14.67.48,7.95,7.74,10.09,12.35,14.67ZM224.04,83.59c4.06-6.44,5.28-13.26-.5-19.68-7,6.86-4.25,13.53.5,19.68ZM304.76,100.77c1.96-1.47,3.93-3.17,6.11-4.52,3.64-2.26,4.95-5.75,5.87-9.65-12.78-.26-13.86,4.93-11.98,14.17ZM223.09,145.96c2.65-5.71,1.42-9.66-3.97-12.98-2.63-1.63-5.22-3.33-7.8-4.99-2.61,6.3-1.43,12.18,3.83,17.24,2.48,2.39,4.9,4.65,4.23,8.53,1.24-2.6,2.49-5.19,3.71-7.8ZM210.14,106.83c-8.36,6.28-11.48,10.19-4.67,20.42,5.81-5.91,7.45-12.87,4.67-20.42ZM228.54,129.37c6.64-10.87,2.77-14.13-6.28-19.1-3.04,8.18,2.94,13.12,6.28,19.1Z"/></svg>