<?xml version="1.0" encoding="UTF-8"?><svg id="Layer_1" xmlns="http://www.w3.org/2000/svg" xmlns:xlink="http://www.w3.org/1999/xlink" viewBox="0 0 277.45 383.27"><defs><style>.cls-1{fill:url(#linear-gradient);stroke-width:0px;}</style><linearGradient id="linear-gradient" x1="29.32" y1="151.98" x2="264.37" y2="322.21" gradientUnits="userSpaceOnUse"><stop offset="0" stop-color="#d41700"/><stop offset=".15" stop-color="#d82900"/><stop offset=".46" stop-color="#e55700"/><stop offset=".88" stop-color="#f9a200"/><stop offset="1" stop-color="#ffb900"/></linearGradient></defs><path class="cls-1" d="M254.48,121.01c2.49,4.66,4.79,9.43,7.5,13.95,4.37,7.27,9.02,14.39,13.56,21.56,3.23,5.1,2.48,7.44-3.14,9.69-1.18.47-2.41.8-3.6,1.28-1.59.64-4.33,1.11-4.52,2.06-.58,2.89-.94,6.26.04,8.91,1.71,4.64.78,7.15-4.04,7.89-.95.15-2.11.86-2.55,1.66-.24.44.64,1.84,1.34,2.38,3.66,2.84,3.41,5.45.05,8.45-1.76,1.57-3.03,4.34-3.35,6.73-.39,2.97.44,6.09.73,9.15.91,9.52-4.48,15.62-14.1,15.4-6.03-.14-12.07-.77-18.06-1.54-9.86-1.27-17.52,1.81-22.68,10.52-6.62,11.18-11.91,22.87-11.54,36.18.14,4.79,1.44,9.62,2.8,14.25.64,2.17,2.39,4.25,4.13,5.84,9.7,8.88,19.9,17.25,29.21,26.52,4.96,4.94,8.49,11.33,12.61,17.11.58.81.84,1.86,1.59,3.58-3.54-.58-6.41-.97-9.24-1.54-27.85-5.6-54-15.41-77.57-31.53-20.27-13.86-36.99-31.11-49.79-52.12-1.27-2.08-1.17-3.41.44-5.24,10.59-12.04,18.89-25.47,22.46-41.22,1.65-7.26,1.75-14.88,2.52-22.34.1-.93.01-1.88.01-2.75,53.38.78,96.56-17.65,125.18-64.83ZM247.58,379.03c-29.35-6.07-57.59-15.28-83.54-30.59-32.15-18.98-57.81-44.04-72.88-78.85-.39-.91-.99-1.73-1.51-2.62-2.88,2.14-5.44,4.03-7.98,5.94-9.91,7.48-20.21,14.48-29.63,22.54-25.9,22.17-43.37,49.74-51.4,83.07-1.15,4.78-1.17,4.75,3.78,4.75,55.02-.01,110.04-.03,165.06-.03,33.45,0,66.91,0,101.16,0-8.26-1.5-15.69-2.68-23.05-4.21ZM173.22,134.26c17.97-13.29,32.7-29.33,41.27-50.34,3.89-9.52,5.5-19.37,3.25-29.59-3.82-17.27-14.56-29.35-29.09-38.54-1.64-1.04-3.41-1.86-5.61-3.06.29,1.08.33,1.5.51,1.86,9.01,18.25,10.13,37.27,5.06,56.72-7.65,29.36-24.52,52.67-48.11,71.25-6.79,5.35-14.26,9.84-21.68,14.91,20.26-3.25,38.22-11.24,54.4-23.21ZM119.74,4.43c16.38,15.8,23.48,35.59,23.96,57.83.56,25.94-8.2,48.9-24.13,69.18-3.69,4.7-7.9,8.99-12.32,13.96,1.49-.68,2.43-1.08,3.34-1.54,25.38-12.73,42.46-33,53.31-58.87,5.37-12.82,8.14-26.16,6.21-40.09C166.64,19.85,141.54-.74,114.88.02c1.93,1.75,3.44,3.04,4.86,4.41ZM132.18,170.68c3.17.31,6.34.73,9.51.76,19.18.24,37.43-4,54.91-11.75,16.06-7.12,30.83-16.14,42.38-29.69,8.36-9.82,12.83-21.04,12.35-34.15-.42-11.35-4.18-21.55-9.86-31.18-.82-1.39-1.76-2.71-3.1-4.76-.75,10.5-2.63,19.84-6.38,28.67-16.31,38.33-45.57,62.5-84.15,76.23-5.92,2.11-12.15,3.34-18.69,5.1,1.27.33,2.14.67,3.03.76ZM94.28,135.18c.91-.81,1.91-1.54,2.72-2.43,20.5-22.66,29.65-49.16,25.95-79.58-1.6-13.19-7.03-24.94-17.61-33.59-13.54-11.07-29.26-13.66-46.13-11.18-1.6.24-3.17.65-5.52,1.15,25.87,9.66,40.59,28.43,47.92,53.33,7.32,24.88,3.32,48.82-8.29,71.78.32.18.64.36.96.53ZM82.97,119.32c9.98-25.93,6.36-50.35-9.24-72.82-11.49-16.55-27.6-22.92-47.55-17.95-6.14,1.53-11.88,4.09-17.83,8.22,22.99.5,40.59,10.31,54.49,26.94,13.84,16.56,20.35,35.75,19.23,57.59.3-.66.65-1.31.91-1.99Z"/></svg>