<svg width="43" height="32" viewBox="0 0 43 32" fill="none" xmlns="http://www.w3.org/2000/svg">
<g clip-path="url(#clip0_1540_573)">
<path fill-rule="evenodd" clip-rule="evenodd" d="M26.5356 0.00239506C26.4817 -0.00836178 26.4272 0.0177994 26.4008 0.0671176C26.0422 0.72309 25.6426 1.57848 25.3627 2.2537C22.2575 1.77051 19.099 1.77051 15.9939 2.2537C15.6823 1.50554 15.3305 0.775568 14.9404 0.0671176C14.9128 0.0190142 14.8592 -0.00672122 14.8055 0.00239506C11.9248 0.511395 9.12095 1.40225 6.46464 2.65253C6.44214 2.66219 6.42307 2.67867 6.41 2.69976C1.09643 10.8321 -0.360014 18.7632 0.355405 26.5947C0.358916 26.6339 0.378061 26.6699 0.408335 26.6944C3.50153 29.0422 6.96169 30.8346 10.641 31.9946C10.6941 32.0104 10.7512 31.9909 10.7845 31.9456C11.5755 30.8445 12.2757 29.6778 12.8778 28.4576C12.8948 28.4238 12.8968 28.3842 12.8834 28.3488C12.8701 28.3133 12.8425 28.2854 12.8078 28.2722C11.7038 27.8394 10.635 27.3176 9.61145 26.7118C9.57334 26.6893 9.54879 26.6486 9.54604 26.6037C9.5433 26.5586 9.56271 26.5152 9.59778 26.488C9.81334 26.3227 10.0251 26.1525 10.2329 25.9771C10.27 25.9464 10.3209 25.9395 10.3644 25.9597C17.0713 29.0962 24.3313 29.0962 30.9596 25.9597C31.0035 25.9389 31.0553 25.9456 31.0927 25.9771C31.2976 26.1486 31.5128 26.3235 31.7297 26.488C31.7643 26.5147 31.7838 26.5573 31.7818 26.6018C31.7797 26.6462 31.7563 26.6867 31.7195 26.7101C30.6982 27.3216 29.6284 27.8435 28.5214 28.2704C28.4866 28.2842 28.4589 28.3123 28.4456 28.348C28.4322 28.3837 28.4343 28.4235 28.4514 28.4576C29.066 29.6786 29.7696 30.8402 30.543 31.9438C30.5756 31.9899 30.6333 32.0098 30.6865 31.9928C34.3718 30.8363 37.8377 29.0438 40.9344 26.6926C40.9649 26.6706 40.9848 26.6362 40.9891 26.5981C41.8428 17.5422 39.5582 9.67581 34.9294 2.70325C34.9185 2.67974 34.8998 2.66107 34.8764 2.65077V2.65253C32.2198 1.40327 29.4161 0.512454 26.5356 0.00239506ZM10.1971 17.5931C10.1971 15.2613 11.8294 13.3616 13.88 13.3616C15.946 13.3616 17.5954 15.2788 17.563 17.5949C17.563 19.9266 15.9306 21.8245 13.88 21.8245C11.8601 21.8245 10.1971 19.9266 10.1971 17.5931ZM23.8139 17.5931C23.8139 15.2613 25.4445 13.3616 27.4969 13.3616C29.5629 13.3616 31.2123 15.2788 31.1799 17.5949C31.1799 19.9266 29.5645 21.8245 27.4969 21.8245C25.477 21.8245 23.8139 19.9266 23.8139 17.5931Z" fill="url(#paint0_linear_1540_573)"/>
</g>
<defs>
<linearGradient id="paint0_linear_1540_573" x1="35.731" y1="27.4286" x2="5.65764" y2="25.6507" gradientUnits="userSpaceOnUse">
<stop stop-color="#268AFF"/>
<stop offset="1" stop-color="#589EEF"/>
</linearGradient>
<clipPath id="clip0_1540_573">
<rect width="42.2739" height="32" fill="white" transform="translate(0.185547)"/>
</clipPath>
</defs>
</svg>
