<svg width="43" height="32" viewBox="0 0 43 32" fill="none" xmlns="http://www.w3.org/2000/svg">
<g clip-path="url(#clip0_1540_562)">
<mask id="mask0_1540_562" style="mask-type:luminance" maskUnits="userSpaceOnUse" x="0" y="0" width="43" height="32">
<path d="M42.2495 0H0.238281V31.2781H42.2495V0Z" fill="white"/>
</mask>
<g mask="url(#mask0_1540_562)">
<path d="M39.2655 4.28296C40.0864 3.43879 40.7122 2.44551 41.0943 1.35856C41.18 1.11492 41.0912 0.848237 40.871 0.688893C40.651 0.529425 40.3454 0.510323 40.1033 0.64083C38.6309 1.43497 37.0423 2.00568 35.3765 2.3394C33.6988 0.848485 31.4199 0 29.0639 0C24.0911 0 20.0453 3.67899 20.0453 8.20103C20.0453 8.55719 20.0701 8.91136 20.1191 9.26061C13.9482 8.76792 8.21121 6.00975 4.27165 1.61526C4.13125 1.45863 3.91497 1.37421 3.69353 1.39036C3.47196 1.40613 3.27287 1.51975 3.16093 1.69438C2.3619 2.94117 1.93949 4.36714 1.93949 5.818C1.93949 7.79411 2.71535 9.66902 4.08585 11.1341C3.66914 11.0028 3.26474 10.8388 2.87878 10.6439C2.67157 10.5391 2.4187 10.5407 2.21284 10.648C2.00685 10.7554 1.87769 10.9528 1.87227 11.1686C1.87133 11.2049 1.87133 11.2413 1.87133 11.2781C1.87133 14.2278 3.61709 16.8834 6.28615 18.3308C6.05686 18.3101 5.8277 18.2797 5.60003 18.2403C5.3653 18.1994 5.12393 18.2742 4.96566 18.4371C4.8071 18.5997 4.75464 18.8264 4.8277 19.0336C5.81564 21.8383 8.35921 23.9015 11.4342 24.5305C8.88381 25.9832 5.96728 26.7439 2.90562 26.7439C2.26677 26.7439 1.62427 26.7099 0.99546 26.6422C0.683087 26.6083 0.384401 26.7761 0.278017 27.0462C0.171634 27.3165 0.284387 27.6179 0.550141 27.7728C4.48333 30.066 9.03125 31.2781 13.7019 31.2781C22.884 31.2781 28.628 27.3408 31.8296 24.0377C35.8221 19.919 38.1118 14.4674 38.1118 9.08081C38.1118 8.85578 38.108 8.62853 38.1004 8.40202C39.6756 7.32285 41.0317 6.01677 42.1352 4.51564C42.3028 4.28765 42.2848 3.98634 42.0905 3.77645C41.8966 3.56647 41.5733 3.49856 41.2974 3.60972C40.6374 3.87591 39.959 4.10058 39.2655 4.28296Z" fill="url(#paint0_linear_1540_562)"/>
</g>
</g>
<defs>
<linearGradient id="paint0_linear_1540_562" x1="36.6785" y1="26.8098" x2="5.85885" y2="24.8988" gradientUnits="userSpaceOnUse">
<stop stop-color="#268AFF"/>
<stop offset="1" stop-color="#589EEF"/>
</linearGradient>
<clipPath id="clip0_1540_562">
<rect width="42.2739" height="32" fill="white" transform="translate(0.238281)"/>
</clipPath>
</defs>
</svg>
