<?xml version="1.0" standalone="no"?>
<!DOCTYPE svg PUBLIC "-//W3C//DTD SVG 20010904//EN"
 "http://www.w3.org/TR/2001/REC-SVG-20010904/DTD/svg10.dtd">
<svg version="1.0" xmlns="http://www.w3.org/2000/svg"
 width="682.000000pt" height="682.000000pt" viewBox="0 0 682.000000 682.000000"
 preserveAspectRatio="xMidYMid meet">
<metadata>
Created by potrace 1.14, written by Peter Selinger 2001-2017
</metadata>
<g transform="translate(0.000000,682.000000) scale(0.100000,-0.100000)"
fill="#000000" stroke="none">
<path d="M3393 6137 c-11 -12 -105 -132 -209 -266 -194 -250 -380 -490 -482
-620 -31 -40 -64 -82 -72 -93 -8 -11 -25 -32 -36 -46 -97 -122 -463 -596 -461
-598 1 -1 25 2 52 7 28 5 59 11 70 13 141 26 195 36 220 41 28 5 319 59 378
70 15 2 53 9 85 15 61 11 92 17 132 25 14 3 43 7 65 11 22 3 48 7 57 10 19 6
36 9 98 19 25 4 54 9 65 12 11 2 58 11 105 19 47 8 94 17 105 19 79 15 357 67
385 71 19 3 55 10 80 15 25 6 59 12 75 14 17 2 77 14 135 25 58 11 119 23 135
25 17 2 64 10 105 19 41 8 113 22 160 30 47 8 148 27 225 41 77 14 203 37 280
51 77 15 147 27 155 29 8 2 24 4 35 4 24 1 9 11 -140 91 -55 30 -118 64 -140
77 -22 12 -47 26 -55 30 -8 4 -78 41 -155 83 -77 42 -174 95 -215 117 -41 22
-151 82 -245 133 -227 124 -288 157 -460 250 -27 15 -131 71 -230 125 -99 53
-203 110 -232 125 l-51 28 -19 -21z"/>
<path d="M165 5598 c-10 -46 -20 -87 -21 -93 -4 -16 -92 -379 -119 -489 -13
-54 -21 -104 -17 -111 4 -7 23 -32 44 -56 20 -24 75 -91 123 -149 48 -58 95
-115 105 -127 10 -11 40 -47 66 -80 112 -138 509 -618 514 -623 3 -3 46 -54
95 -115 48 -60 91 -112 94 -115 3 -3 23 -26 44 -52 21 -27 42 -48 46 -48 4 0
27 18 51 41 25 22 69 61 99 87 80 69 83 73 72 86 -5 6 -81 133 -168 281 -88
149 -254 430 -370 625 -115 195 -254 429 -307 520 -54 91 -110 183 -124 205
-36 53 -193 278 -202 288 -4 4 -15 -29 -25 -75z"/>
<path d="M4185 4485 c-244 -54 -618 -136 -640 -141 -46 -9 -63 -13 -130 -29
-38 -9 -77 -18 -85 -20 -9 -2 -75 -24 -148 -49 -237 -83 -386 -134 -447 -155
-33 -11 -172 -59 -310 -106 -137 -48 -295 -102 -349 -121 -54 -18 -102 -36
-105 -39 -5 -5 171 -549 188 -580 3 -5 6 -14 7 -20 3 -17 194 -578 198 -583 4
-4 129 88 686 502 96 72 194 144 217 161 96 70 295 217 311 230 18 15 147 111
172 129 8 5 2 -5 -15 -24 -16 -19 -34 -39 -40 -45 -5 -7 -39 -44 -74 -83 -35
-39 -71 -80 -80 -90 -9 -11 -47 -53 -84 -94 -37 -42 -76 -85 -85 -96 -16 -18
-135 -151 -177 -198 -11 -12 -45 -50 -75 -84 -30 -34 -74 -83 -97 -108 -23
-26 -43 -50 -43 -53 0 -3 371 -6 825 -6 l824 0 5 26 c5 22 19 115 40 266 3 17
14 91 25 165 11 74 23 153 25 175 3 22 19 130 35 240 17 110 33 223 36 250 4
28 11 70 15 95 5 25 5 50 2 57 -4 6 -101 109 -217 228 -115 119 -211 221 -213
226 -5 14 -35 10 -197 -26z"/>
<path d="M5735 4468 c-17 -4 -48 -10 -70 -14 -22 -3 -42 -7 -45 -9 -3 -2 -26
-6 -50 -10 -69 -9 -71 -11 -140 -97 -36 -44 -70 -86 -75 -92 -6 -6 -42 -49
-80 -96 -38 -47 -83 -101 -100 -120 -16 -20 -46 -56 -67 -80 -20 -25 -55 -67
-77 -95 -23 -27 -41 -56 -42 -65 0 -8 -2 -22 -4 -30 -2 -8 -20 -112 -40 -230
-19 -118 -38 -226 -41 -240 -2 -14 -7 -41 -10 -60 -3 -19 -9 -54 -14 -77 -7
-42 -7 -43 19 -37 14 4 41 13 59 20 17 7 32 11 32 10 0 -2 33 6 74 19 l74 23
70 -167 c68 -160 71 -166 99 -166 27 1 180 17 196 21 4 1 19 2 33 3 l26 1 -6
98 c-13 191 -17 237 -22 255 -3 9 -2 17 3 17 7 -1 96 -170 202 -388 l46 -93
70 5 c78 5 202 17 225 22 8 1 27 3 42 3 20 1 26 5 24 19 -2 9 -7 53 -11 97 -4
44 -9 91 -10 105 -1 14 -6 57 -10 95 l-6 70 128 -255 128 -255 40 1 c22 1 94
5 160 9 66 4 147 9 180 10 33 2 62 4 63 4 3 1 -38 79 -98 186 -34 61 -218 392
-250 450 -18 33 -52 94 -75 135 -23 41 -57 102 -75 135 -60 109 -83 148 -111
197 -16 27 -29 51 -29 53 0 2 -17 34 -39 72 -21 37 -53 95 -71 128 -18 33 -54
98 -81 145 -93 167 -120 215 -136 248 -18 34 -40 39 -108 20z"/>
<path d="M1625 3809 c-141 -121 -217 -186 -274 -235 -20 -17 -76 -66 -126
-108 -49 -43 -103 -90 -120 -105 -16 -14 -72 -62 -122 -106 -51 -43 -93 -80
-93 -81 0 -2 91 -93 127 -127 l29 -27 90 76 c49 42 114 98 144 124 30 26 78
67 105 90 118 100 161 137 205 175 25 22 75 65 110 95 36 30 80 69 99 86 l34
30 -37 112 c-21 62 -38 112 -39 112 -1 0 -60 -50 -132 -111z"/>
<path d="M1748 3447 c-20 -18 -90 -78 -155 -134 -65 -55 -140 -120 -167 -144
-27 -24 -57 -50 -67 -57 -11 -7 -19 -17 -19 -22 0 -8 65 -56 249 -184 31 -22
69 -49 85 -62 l30 -23 50 42 c28 23 56 47 62 52 6 6 41 35 78 65 36 29 66 57
66 61 0 7 -46 127 -75 194 -7 17 -32 78 -56 138 -23 59 -43 107 -43 107 -1 0
-18 -15 -38 -33z"/>
<path d="M2553 2403 c-10 -8 -274 -201 -588 -429 -313 -228 -575 -420 -582
-427 -10 -10 -7 -22 11 -62 43 -88 173 -366 250 -530 26 -55 67 -143 92 -195
l46 -96 1463 0 c992 1 1461 4 1456 11 -13 16 -153 199 -178 231 -131 171 -481
627 -502 652 -14 19 -94 122 -177 230 l-150 196 217 216 217 217 -779 0 c-649
0 -782 -2 -796 -14z"/>
<path d="M4151 2206 l-211 -211 28 -31 c15 -17 72 -85 127 -150 55 -65 107
-125 115 -134 8 -8 59 -67 112 -130 53 -63 109 -128 123 -145 15 -16 45 -52
68 -80 41 -48 64 -75 176 -204 30 -34 70 -82 90 -106 45 -55 191 -225 273
-319 l26 -31 495 0 c333 0 493 3 489 10 -3 5 -18 19 -32 31 -32 28 -60 52
-139 122 -35 31 -72 64 -81 72 -28 25 -141 124 -164 143 -49 43 -152 134 -172
152 -12 11 -46 41 -75 66 -30 26 -66 57 -80 70 -22 21 -92 82 -173 152 -28 24
-119 104 -236 208 -52 45 -105 92 -117 103 -20 17 -42 65 -49 103 -1 7 -11 41
-22 75 -11 35 -31 101 -45 148 -14 47 -41 133 -59 191 l-33 107 -111 -1 -111
-1 -212 -210z"/>
</g>
</svg>
