<?xml version="1.0" encoding="UTF-8"?><svg id="Layer_1" xmlns="http://www.w3.org/2000/svg" viewBox="0 0 32 32"><defs><style>.cls-1{letter-spacing:.02em;}.cls-2{letter-spacing:.03em;}.cls-3{letter-spacing:-.02em;}.cls-4{letter-spacing:-.01em;}.cls-5{font-family:Gibson-SemiBold, Gibson;font-size:49.5px;font-weight:600;}.cls-6{letter-spacing:.02em;}.cls-7{letter-spacing:.03em;}.cls-8{letter-spacing:.01em;}.cls-9{letter-spacing:0em;}.cls-10{fill:#cd1127;}.cls-10,.cls-11,.cls-12{stroke-width:0px;}.cls-11{fill:#fcd016;}.cls-12{fill:#010100;}.cls-13{letter-spacing:0em;}.cls-14{letter-spacing:0em;}</style></defs><text class="cls-5" transform="translate(171.19 33.4)"><tspan class="cls-6" x="0" y="0">S</tspan><tspan class="cls-2" x="28.31" y="0">A</tspan><tspan class="cls-7" x="63.21" y="0">R</tspan><tspan class="cls-4" x="94.4" y="0">A</tspan><tspan class="cls-9" x="127.31" y="0">W</tspan><tspan class="cls-1" x="175.43" y="0" xml:space="preserve">AK  A</tspan><tspan class="cls-14" x="299.57" y="0">D</tspan><tspan class="cls-3" x="334.62" y="0">V</tspan><tspan class="cls-1" x="366.2" y="0" xml:space="preserve">ANCED  TECHNO</tspan><tspan x="764.92" y="0">L</tspan><tspan class="cls-1" x="788.33" y="0">O</tspan><tspan class="cls-13" x="828.57" y="0">G</tspan><tspan class="cls-1" x="865.15" y="0" xml:space="preserve">Y  IN</tspan><tspan class="cls-8" x="972.91" y="0">S</tspan><tspan class="cls-1" x="1000.98" y="0">TITUTE</tspan></text><path class="cls-10" d="M30.32,23.13c-.47.99-1.07,1.91-1.75,2.77-1.44,1.83-3.2,3.27-5.26,4.34-.04.02-.09.04-.13.06-.66-.33-1.33-.67-1.99-1-2.65-1.32-5.29-2.64-7.94-3.95-2.73-1.36-5.45-2.71-8.18-4.07-1.6-.8-3.21-1.59-4.81-2.39C.05,17.78-.03,16.66,0,15.54c.07-2.26.58-4.41,1.56-6.46.03-.07.07-.14.11-.2,0,0,.01,0,.02,0,3.23,1.61,6.47,3.22,9.7,4.83.07.03.13.09.21.07.53.42.98.92,1.5,1.4-1.59.56-3.16,1.12-4.73,1.67.12.04.22.04.33.05,1.5.1,2.99.21,4.49.31.16.01.18.04.1.18-.53.89-1.05,1.78-1.58,2.67-.29.49-.57.99-.86,1.48,0,0-.01,0-.01,0,0,0,0,0,0,.01,0,0,0-.01.01-.02.08,0,.13-.06.18-.1,1.22-.89,2.44-1.78,3.66-2.67.07-.05.13-.11.22-.13.28,1.65.55,3.29.82,4.92.04-.03.04-.05.05-.07.38-1.54.76-3.08,1.14-4.62.03-.13.05-.18.18-.07.65.57,1.31,1.12,1.96,1.68.57.49,1.14.97,1.71,1.45,0,0,0,0,0,.01,0,0,0,0,0,0h-.02c.02-.08-.03-.13-.05-.18-.46-.94-.93-1.89-1.39-2.83-.24-.49-.48-.99-.74-1.51h.28s.09.06.14.08c2.7,1.34,5.4,2.69,8.1,4.03,1.06.53,2.13,1.06,3.2,1.58Z"/><path class="cls-12" d="M11.61,13.78c-.09.02-.15-.03-.21-.07-3.23-1.61-6.47-3.22-9.7-4.83,0,0-.01,0-.02,0,.32-.7.72-1.35,1.16-1.98,1.49-2.15,3.39-3.83,5.7-5.06.05-.03.1-.07.16-.07.02.02.05.03.07.05,1.99.99,3.97,1.98,5.96,2.96,4.84,2.41,9.69,4.82,14.53,7.23.83.41,1.66.82,2.49,1.23.12.54.17,1.08.21,1.62.19,2.81-.32,5.5-1.53,8.05-.03.07-.07.14-.11.2-1.07-.53-2.13-1.05-3.2-1.58-2.7-1.34-5.4-2.69-8.1-4.03-.05-.02-.09-.05-.14-.08,1.09,0,2.18.02,3.27.02.48,0,.97,0,1.45,0,0,0,0-.01,0-.02-1.52-.67-3.04-1.35-4.58-2.03,1.29-1.06,2.56-2.11,3.83-3.16l-.03-.04c-1.58.46-3.16.91-4.76,1.38.31-1.67.61-3.3.92-4.94,0,0-.02,0-.03,0-.93,1.39-1.86,2.77-2.8,4.17-.83-1.47-1.65-2.91-2.46-4.36-.01,0-.02,0-.03.01.18,1.65.35,3.3.53,4.98-1.58-.59-3.13-1.17-4.68-1.75,0,.02-.01.03-.02.05.02.02.05.03.07.05.66.64,1.32,1.27,1.98,1.91.03.03.05.05.05.09Z"/><path class="cls-11" d="M31.75,13.25c-.83-.41-1.66-.82-2.49-1.23-4.84-2.41-9.69-4.82-14.53-7.23-1.99-.99-3.97-1.98-5.96-2.96-.03-.01-.05-.03-.07-.05.39-.25.83-.42,1.25-.59C12.05.33,14.23-.07,16.49.01c3.97.14,7.44,1.55,10.37,4.24,2.38,2.18,3.93,4.86,4.7,8,.08.33.16.66.2,1Z"/><path class="cls-11" d="M.27,18.88c1.6.8,3.21,1.59,4.81,2.39,2.73,1.36,5.45,2.71,8.18,4.07,2.65,1.32,5.29,2.63,7.94,3.95.66.33,1.33.67,1.99,1-.62.34-1.28.6-1.95.83-1.72.6-3.49.89-5.31.88-3.47-.03-6.63-1.05-9.42-3.12-3.15-2.34-5.18-5.44-6.1-9.26-.06-.24-.12-.48-.14-.73Z"/><path class="cls-11" d="M11.61,13.78s-.02-.06-.05-.09c-.66-.64-1.32-1.27-1.98-1.91-.02-.02-.04-.04-.07-.05,0-.02.01-.03.02-.05,1.55.58,3.1,1.16,4.68,1.75-.18-1.67-.36-3.32-.53-4.98.01,0,.02,0,.03-.01.82,1.45,1.64,2.89,2.46,4.36.94-1.4,1.87-2.78,2.8-4.17,0,0,.02,0,.03,0-.3,1.64-.61,3.27-.92,4.94,1.6-.46,3.18-.92,4.76-1.38l.03.04c-1.27,1.05-2.54,2.09-3.83,3.16,1.54.68,3.06,1.35,4.58,2.03,0,0,0,.01,0,.02-.48,0-.97,0-1.45,0-1.09,0-2.18-.02-3.27-.02-.09,0-.17,0-.28,0,.25.52.49,1.01.74,1.51.46.94.93,1.89,1.39,2.83.03.05.07.1.05.17h0c-.57-.49-1.14-.97-1.71-1.45-.66-.56-1.31-1.12-1.96-1.68-.13-.11-.15-.06-.18.07-.38,1.54-.76,3.08-1.14,4.62,0,.02-.01.05-.05.07-.27-1.64-.55-3.27-.82-4.92-.09.02-.15.08-.22.13-1.22.89-2.44,1.78-3.66,2.67-.05.04-.1.11-.18.1,0,0,0,0,0,0,.29-.49.57-.99.86-1.48.52-.89,1.05-1.78,1.58-2.67.08-.13.07-.17-.1-.18-1.5-.1-2.99-.2-4.49-.31-.11,0-.21-.01-.33-.05,1.57-.55,3.13-1.11,4.73-1.67-.52-.47-.97-.98-1.5-1.4Z"/><path class="cls-11" d="M20.79,21.93h.02s0,.01,0,.01c0,0,0,0,0-.01,0,0,0,0,0,0Z"/><path class="cls-11" d="M10.86,21.54s0,.01-.01.02c0,0,0,0,0-.01,0,0,0,0,.01,0,0,0,0,0,0,0Z"/></svg>