<svg width="264" height="40" viewBox="0 0 264 40" fill="none" xmlns="http://www.w3.org/2000/svg">
<path d="M44.8427 40H37.5665L29.2617 30.2952L32.3658 27.242H33.9785L35.3088 31.6255L44.8427 40Z" fill="#1156A8"/>
<path d="M39.5503 7.67829L32.363 9.00163L25.4023 0L39.5503 7.67829Z" fill="#1156A8"/>
<path d="M32.3674 11.9137L35.6632 15.3303L34.3025 24.5815H31.8535L33.3954 15.9043L32.3674 11.9137Z" fill="#1156A8"/>
<path d="M27.4697 30.3859L34.877 40H20.4851L16.6855 33.6208L22.5716 27.242H30.6441L27.4697 30.3859Z" fill="#236CB5"/>
<path d="M32.3656 11.9137L33.3937 15.9043L31.8518 24.5815H22.207L28.0271 18.0587L32.3656 11.9137Z" fill="#236CB5"/>
<path d="M32.3667 11.9137L28.0282 18.0587L17.7785 25.6585L14.8711 16.991L24.8687 13.5465L32.3667 11.9137Z" fill="#3986C6"/>
<path d="M25.4049 0L32.3656 9.00163L23.7695 10.5847L25.4049 0Z" fill="#236CB5"/>
<path d="M25.4035 0L23.7681 10.5847L16.0488 12.0064L25.4035 0Z" fill="#3986C6"/>
<path d="M22.5706 27.242L16.6845 33.6208L20.4841 40H13.5425L10.5371 33.6208L19.3055 27.242H22.5706Z" fill="#3986C6"/>
<path d="M13.5809 19.5022L14.8708 22.7169L12.9862 24.289L10.2754 22.3544L13.5809 19.5022Z" fill="#236CB5"/>
<path d="M13.3604 16.2875L13.9235 17.9454L8.17342 22.8593L7.03125 21.7293L13.3604 16.2875Z" fill="#1156A8"/>
<path d="M3.51291 5.77481L10.5359 17.6278L9.82745 18.2476L2.55078 8.87704L3.51129 5.77238L3.51291 5.77481Z" fill="#1156A8"/>
<path d="M2.55183 8.87702L9.8285 18.2476L8.84371 19.1093L0.564453 9.08254L1.91702 3.48454L3.51234 5.77237L2.55183 8.87702Z" fill="#3986C6"/>
<path d="M36.0664 22.197L36.9375 17.0994L40.6468 12.6423L42.9708 12.1924L50.1901 25.1778L46.9448 25.3801L45.0549 21.6112L45.3503 24.4359L42.7463 24.6972L40.8775 21.0436L41.098 23.8553L39.0325 24.0985L37.9979 21.6359L36.0664 22.197Z" fill="#3986C6"/>
<path d="M60.1176 28.0409C60.1176 21.3368 64.4638 16.1587 70.752 16.1587C74.081 16.1587 76.3468 17.4533 77.8264 19.5801L77.919 17.4072C77.919 16.9909 78.2427 16.7138 78.6586 16.7138H83.7909C84.2073 16.7138 84.5305 16.9913 84.5305 17.4072V38.6745C84.5305 39.0908 84.1607 39.368 83.7444 39.368H78.6582C78.2419 39.368 77.9186 39.0904 77.9186 38.6745L77.826 36.4555C76.3002 38.6284 73.9884 39.923 70.7516 39.923C64.4634 39.923 60.1172 34.7911 60.1172 28.0409H60.1176ZM72.2777 33.4965C75.3757 33.4965 77.5027 31.3235 77.5027 27.9948C77.5027 24.666 75.3757 22.5853 72.2777 22.5853C69.1797 22.5853 67.0067 24.7582 67.0067 28.0409C67.0067 31.3235 69.2724 33.4965 72.2777 33.4965Z" fill="#D9F0FF"/>
<path d="M89.6621 38.6749V17.4076C89.6621 16.9913 89.9397 16.7142 90.3556 16.7142H95.8116C96.2279 16.7142 96.5051 16.8991 96.5051 17.4538L96.7361 20.0891C98.0308 17.7774 100.111 16.1591 103.348 16.1591C108.064 16.1591 111.532 19.6267 111.532 25.5447V38.6749C111.532 39.0912 111.208 39.3684 110.792 39.3684H105.197C104.781 39.3684 104.458 39.0908 104.458 38.6749V27.2091C104.458 24.204 103.163 22.6318 100.666 22.6318C98.1696 22.6318 96.7361 24.2036 96.7361 27.2091V38.6749C96.7361 39.0912 96.4124 39.3684 95.9965 39.3684H90.3556C89.9393 39.3684 89.6621 39.0908 89.6621 38.6749Z" fill="#D9F0FF"/>
<path d="M115.555 27.9487C115.555 21.2911 120.225 16.1591 127.206 16.1591C134.188 16.1591 138.164 21.1984 138.164 27.0242C138.164 29.3359 137.563 30.7228 135.483 30.7228H122.444C123.23 33.1732 125.357 34.3752 128.593 34.3752C130.119 34.3752 131.691 34.1903 133.587 33.1267C133.957 32.9418 134.141 33.0341 134.419 33.3577L136.315 36.0392C136.499 36.3167 136.499 36.6865 136.083 37.0563C134.141 38.9982 131.229 39.9226 128.038 39.9226C120.594 39.9226 115.555 34.8372 115.555 27.9487ZM131.876 25.8218C131.414 23.0942 129.61 21.9845 127.252 21.9845C124.894 21.9845 122.906 23.1404 122.351 25.8218H131.876Z" fill="#D9F0FF"/>
<path d="M143.807 32.6643V22.1694H140.986C140.57 22.1694 140.293 21.8918 140.293 21.4759V17.4072C140.293 16.9909 140.571 16.7138 140.986 16.7138H143.807V11.397C143.807 10.9811 144.131 10.7035 144.546 10.7035H150.233C150.65 10.7035 150.973 10.9811 150.973 11.397V16.7138H154.441C154.857 16.7138 155.134 16.9913 155.134 17.4072V21.4759C155.134 21.8922 154.857 22.1694 154.441 22.1694H150.973V31.9247C150.973 33.1267 151.759 33.774 152.915 33.774C153.331 33.774 153.747 33.774 154.349 33.7279C154.811 33.6817 155.181 33.9127 155.181 34.3752V38.2125C155.181 39.3683 152.684 39.6459 151.112 39.6459C147.367 39.6459 143.806 37.9354 143.806 32.6647L143.807 32.6643Z" fill="#D9F0FF"/>
<path d="M157.537 28.0409C157.537 21.3368 161.883 16.1587 168.172 16.1587C171.501 16.1587 173.766 17.4533 175.246 19.5801L175.339 17.4072C175.339 16.9909 175.662 16.7138 176.078 16.7138H181.21C181.627 16.7138 181.95 16.9913 181.95 17.4072V38.6745C181.95 39.0908 181.581 39.368 181.164 39.368H176.078C175.662 39.368 175.339 39.0904 175.339 38.6745L175.246 36.4555C173.72 38.6284 171.408 39.923 168.172 39.923C161.883 39.923 157.537 34.7911 157.537 28.0409ZM169.698 33.4965C172.796 33.4965 174.923 31.3235 174.923 27.9948C174.923 24.666 172.796 22.5853 169.698 22.5853C166.6 22.5853 164.427 24.7582 164.427 28.0409C164.427 31.3235 166.692 33.4965 169.698 33.4965Z" fill="#D9F0FF"/>
<path d="M187.545 38.6749V7.6984C187.545 7.2821 187.822 7.00497 188.238 7.00497H199.474C205.254 7.00497 208.444 10.7501 208.444 15.2347C208.444 18.7022 206.363 20.9678 204.283 21.9849C207.427 22.8171 210.571 25.4524 210.571 30.1681C210.571 35.6237 206.826 39.3688 199.012 39.3688H188.238C187.822 39.3688 187.545 39.0912 187.545 38.6753V38.6749ZM197.948 19.6728C200.168 19.6728 201.555 18.7945 201.555 16.4363C201.555 14.2172 200.168 13.4311 197.948 13.4311H194.758V19.6728H197.948ZM198.55 32.9418C201.277 32.9418 203.127 31.7859 203.127 29.1045C203.127 26.423 201.278 25.3594 198.55 25.3594H194.758V32.9418H198.55Z" fill="#D9F0FF"/>
<path d="M220.003 38.6749V13.4777H213.854C213.437 13.4777 213.16 13.2001 213.16 12.7842V7.6984C213.16 7.2821 213.438 7.00497 213.854 7.00497H233.504C233.921 7.00497 234.244 7.28251 234.244 7.6984V12.7842C234.244 13.2005 233.921 13.4777 233.504 13.4777H227.355V38.6749C227.355 39.0912 227.077 39.3684 226.662 39.3684H220.743C220.327 39.3684 220.003 39.0908 220.003 38.6749Z" fill="#D9F0FF"/>
<path d="M235.678 23.3252C235.678 13.8009 243.215 6.6348 252.369 6.6348C257.039 6.6348 260.923 8.48407 263.79 11.4431C264.114 11.7667 264.021 12.0904 263.79 12.3679L260.091 16.2979C259.814 16.6215 259.444 16.6215 259.12 16.3905C257.317 14.8188 255.098 13.8013 252.415 13.8013C247.098 13.8013 243.076 17.8235 243.076 23.3256C243.076 28.8278 247.098 32.8034 252.415 32.8034C255.097 32.8034 257.317 31.7864 259.12 30.2142C259.444 29.9832 259.814 29.9832 260.091 30.3069L263.79 34.2368C264.021 34.5144 264.114 34.838 263.79 35.1617C260.923 38.1207 257.039 39.9699 252.369 39.9699C243.215 39.9699 235.678 32.85 235.678 23.3256V23.3252Z" fill="#D9F0FF"/>
</svg>
